<mxfile host="app.diagrams.net" agent="Mozilla/5.0 (Macintosh; Intel Mac OS X 10_15_7) AppleWebKit/537.36 (KHTML, like Gecko) Chrome/130.0.0.0 Safari/537.36" version="26.0.16">
  <diagram id="OIzuRPA8zJeT12e-H1D8" name="Página-1">
    <mxGraphModel dx="1341" dy="1001" grid="1" gridSize="10" guides="1" tooltips="1" connect="1" arrows="1" fold="1" page="1" pageScale="1" pageWidth="827" pageHeight="1169" math="0" shadow="0">
      <root>
        <mxCell id="0" />
        <mxCell id="1" parent="0" />
        <mxCell id="UUl44Q_bIR5ZF49A4Y3q-1" value="Processos do Sistema de Acompanhamento de Dieta" style="swimlane;html=1;childLayout=stackLayout;resizeParent=1;resizeParentMax=0;horizontal=0;startSize=20;horizontalStack=0;" parent="1" vertex="1">
          <mxGeometry x="20" y="170" width="1770" height="950" as="geometry" />
        </mxCell>
        <mxCell id="Qf3NjimF2T0bbUfOxqCO-266" style="edgeStyle=orthogonalEdgeStyle;rounded=0;orthogonalLoop=1;jettySize=auto;html=1;entryX=0.5;entryY=0;entryDx=0;entryDy=0;endSize=4;dashed=1;exitX=1;exitY=0.5;exitDx=0;exitDy=0;" edge="1" parent="UUl44Q_bIR5ZF49A4Y3q-1" source="Qf3NjimF2T0bbUfOxqCO-187" target="Qf3NjimF2T0bbUfOxqCO-278">
          <mxGeometry relative="1" as="geometry">
            <mxPoint x="1150" y="282.02857142857135" as="sourcePoint" />
            <Array as="points">
              <mxPoint x="1400" y="260" />
              <mxPoint x="1400" y="720" />
              <mxPoint x="1215" y="720" />
            </Array>
          </mxGeometry>
        </mxCell>
        <mxCell id="Qf3NjimF2T0bbUfOxqCO-192" style="edgeStyle=orthogonalEdgeStyle;rounded=0;orthogonalLoop=1;jettySize=auto;html=1;entryX=0.5;entryY=1;entryDx=0;entryDy=0;endSize=4;dashed=1;" edge="1" parent="UUl44Q_bIR5ZF49A4Y3q-1" source="Qf3NjimF2T0bbUfOxqCO-187" target="Qf3NjimF2T0bbUfOxqCO-191">
          <mxGeometry relative="1" as="geometry">
            <Array as="points">
              <mxPoint x="995" y="220" />
              <mxPoint x="1305" y="220" />
            </Array>
          </mxGeometry>
        </mxCell>
        <mxCell id="UUl44Q_bIR5ZF49A4Y3q-2" value="Nutricionista (Usuário)" style="swimlane;html=1;startSize=20;horizontal=0;" parent="UUl44Q_bIR5ZF49A4Y3q-1" vertex="1">
          <mxGeometry x="20" width="1750" height="170" as="geometry" />
        </mxCell>
        <mxCell id="UUl44Q_bIR5ZF49A4Y3q-211" value="" style="edgeStyle=orthogonalEdgeStyle;rounded=0;orthogonalLoop=1;jettySize=auto;html=1;endSize=4;exitX=1;exitY=0.5;exitDx=0;exitDy=0;exitPerimeter=0;" parent="UUl44Q_bIR5ZF49A4Y3q-2" source="UUl44Q_bIR5ZF49A4Y3q-116" target="UUl44Q_bIR5ZF49A4Y3q-117" edge="1">
          <mxGeometry relative="1" as="geometry">
            <mxPoint x="67" y="79.99999999999989" as="sourcePoint" />
          </mxGeometry>
        </mxCell>
        <mxCell id="UUl44Q_bIR5ZF49A4Y3q-116" value="" style="verticalLabelPosition=bottom;verticalAlign=top;html=1;shape=mxgraph.flowchart.on-page_reference;fillColor=#d5e8d4;strokeColor=#82b366;" parent="UUl44Q_bIR5ZF49A4Y3q-2" vertex="1">
          <mxGeometry x="47" y="70" width="20" height="20" as="geometry" />
        </mxCell>
        <mxCell id="UUl44Q_bIR5ZF49A4Y3q-212" value="" style="edgeStyle=orthogonalEdgeStyle;rounded=0;orthogonalLoop=1;jettySize=auto;html=1;entryX=0;entryY=0.5;entryDx=0;entryDy=0;entryPerimeter=0;endSize=4;" parent="UUl44Q_bIR5ZF49A4Y3q-2" source="UUl44Q_bIR5ZF49A4Y3q-117" target="UUl44Q_bIR5ZF49A4Y3q-119" edge="1">
          <mxGeometry relative="1" as="geometry" />
        </mxCell>
        <mxCell id="UUl44Q_bIR5ZF49A4Y3q-117" value="Preenche formulário de cadastro" style="rounded=1;whiteSpace=wrap;html=1;fontSize=8;fillColor=#f5f5f5;strokeColor=#666666;fontColor=#333333;" parent="UUl44Q_bIR5ZF49A4Y3q-2" vertex="1">
          <mxGeometry x="107" y="60" width="70" height="40" as="geometry" />
        </mxCell>
        <mxCell id="UUl44Q_bIR5ZF49A4Y3q-215" value="" style="edgeStyle=orthogonalEdgeStyle;rounded=0;orthogonalLoop=1;jettySize=auto;html=1;endSize=4;" parent="UUl44Q_bIR5ZF49A4Y3q-2" source="UUl44Q_bIR5ZF49A4Y3q-118" target="UUl44Q_bIR5ZF49A4Y3q-120" edge="1">
          <mxGeometry relative="1" as="geometry" />
        </mxCell>
        <mxCell id="UUl44Q_bIR5ZF49A4Y3q-118" value="Escolhe plano de assinatura" style="rounded=1;whiteSpace=wrap;html=1;fontSize=8;fillColor=#f5f5f5;strokeColor=#666666;fontColor=#333333;" parent="UUl44Q_bIR5ZF49A4Y3q-2" vertex="1">
          <mxGeometry x="377" y="60" width="70" height="40" as="geometry" />
        </mxCell>
        <mxCell id="UUl44Q_bIR5ZF49A4Y3q-213" value="" style="edgeStyle=orthogonalEdgeStyle;rounded=0;orthogonalLoop=1;jettySize=auto;html=1;endSize=4;" parent="UUl44Q_bIR5ZF49A4Y3q-2" source="UUl44Q_bIR5ZF49A4Y3q-119" target="UUl44Q_bIR5ZF49A4Y3q-144" edge="1">
          <mxGeometry relative="1" as="geometry" />
        </mxCell>
        <mxCell id="UUl44Q_bIR5ZF49A4Y3q-119" value="Aguarda E-mail&lt;div&gt;de confirmação&lt;/div&gt;" style="verticalLabelPosition=top;verticalAlign=bottom;html=1;shape=mxgraph.flowchart.on-page_reference;fillColor=#fff2cc;strokeColor=#d6b656;fontSize=8;labelPosition=center;align=center;" parent="UUl44Q_bIR5ZF49A4Y3q-2" vertex="1">
          <mxGeometry x="217" y="70" width="20" height="20" as="geometry" />
        </mxCell>
        <mxCell id="UUl44Q_bIR5ZF49A4Y3q-216" value="" style="edgeStyle=orthogonalEdgeStyle;rounded=0;orthogonalLoop=1;jettySize=auto;html=1;endSize=4;" parent="UUl44Q_bIR5ZF49A4Y3q-2" source="UUl44Q_bIR5ZF49A4Y3q-120" target="UUl44Q_bIR5ZF49A4Y3q-146" edge="1">
          <mxGeometry relative="1" as="geometry" />
        </mxCell>
        <mxCell id="UUl44Q_bIR5ZF49A4Y3q-120" value="Preenche dados de pagamento" style="rounded=1;whiteSpace=wrap;html=1;fontSize=8;fillColor=#f5f5f5;strokeColor=#666666;fontColor=#333333;" parent="UUl44Q_bIR5ZF49A4Y3q-2" vertex="1">
          <mxGeometry x="477" y="60" width="70" height="40" as="geometry" />
        </mxCell>
        <mxCell id="UUl44Q_bIR5ZF49A4Y3q-219" value="" style="edgeStyle=orthogonalEdgeStyle;rounded=0;orthogonalLoop=1;jettySize=auto;html=1;endSize=4;" parent="UUl44Q_bIR5ZF49A4Y3q-2" source="UUl44Q_bIR5ZF49A4Y3q-121" target="UUl44Q_bIR5ZF49A4Y3q-122" edge="1">
          <mxGeometry relative="1" as="geometry" />
        </mxCell>
        <mxCell id="UUl44Q_bIR5ZF49A4Y3q-121" value="Aguarda consulta" style="verticalLabelPosition=bottom;verticalAlign=top;html=1;shape=mxgraph.flowchart.on-page_reference;fillColor=#fff2cc;strokeColor=#d6b656;fontSize=8;" parent="UUl44Q_bIR5ZF49A4Y3q-2" vertex="1">
          <mxGeometry x="750" y="70" width="20" height="20" as="geometry" />
        </mxCell>
        <mxCell id="UUl44Q_bIR5ZF49A4Y3q-220" value="" style="edgeStyle=orthogonalEdgeStyle;rounded=0;orthogonalLoop=1;jettySize=auto;html=1;endSize=4;" parent="UUl44Q_bIR5ZF49A4Y3q-2" source="UUl44Q_bIR5ZF49A4Y3q-122" target="UUl44Q_bIR5ZF49A4Y3q-123" edge="1">
          <mxGeometry relative="1" as="geometry" />
        </mxCell>
        <mxCell id="UUl44Q_bIR5ZF49A4Y3q-122" value="Realiza a consulta" style="rounded=1;whiteSpace=wrap;html=1;fontSize=8;fillColor=#f5f5f5;strokeColor=#666666;fontColor=#333333;" parent="UUl44Q_bIR5ZF49A4Y3q-2" vertex="1">
          <mxGeometry x="803" y="60" width="70" height="40" as="geometry" />
        </mxCell>
        <mxCell id="UUl44Q_bIR5ZF49A4Y3q-221" value="" style="edgeStyle=orthogonalEdgeStyle;rounded=0;orthogonalLoop=1;jettySize=auto;html=1;endSize=4;" parent="UUl44Q_bIR5ZF49A4Y3q-2" source="UUl44Q_bIR5ZF49A4Y3q-123" target="UUl44Q_bIR5ZF49A4Y3q-124" edge="1">
          <mxGeometry relative="1" as="geometry" />
        </mxCell>
        <mxCell id="UUl44Q_bIR5ZF49A4Y3q-123" value="Cadastra paciente" style="rounded=1;whiteSpace=wrap;html=1;fontSize=8;fillColor=#f5f5f5;strokeColor=#666666;fontColor=#333333;" parent="UUl44Q_bIR5ZF49A4Y3q-2" vertex="1">
          <mxGeometry x="913" y="60" width="70" height="40" as="geometry" />
        </mxCell>
        <mxCell id="UUl44Q_bIR5ZF49A4Y3q-124" value="Cria dieta respeitando restrições do paciente" style="rounded=1;whiteSpace=wrap;html=1;fontSize=8;fillColor=#f5f5f5;strokeColor=#666666;fontColor=#333333;" parent="UUl44Q_bIR5ZF49A4Y3q-2" vertex="1">
          <mxGeometry x="1023" y="60" width="70" height="40" as="geometry" />
        </mxCell>
        <mxCell id="UUl44Q_bIR5ZF49A4Y3q-125" style="edgeStyle=orthogonalEdgeStyle;rounded=0;orthogonalLoop=1;jettySize=auto;html=1;entryX=0;entryY=0.5;entryDx=0;entryDy=0;endSize=4;" parent="UUl44Q_bIR5ZF49A4Y3q-2" source="UUl44Q_bIR5ZF49A4Y3q-129" target="UUl44Q_bIR5ZF49A4Y3q-133" edge="1">
          <mxGeometry relative="1" as="geometry">
            <Array as="points">
              <mxPoint x="1430" y="40" />
            </Array>
          </mxGeometry>
        </mxCell>
        <mxCell id="UUl44Q_bIR5ZF49A4Y3q-126" value="&lt;font style=&quot;font-size: 8px;&quot;&gt;SIM&lt;/font&gt;" style="edgeLabel;html=1;align=center;verticalAlign=middle;resizable=0;points=[];" parent="UUl44Q_bIR5ZF49A4Y3q-125" vertex="1" connectable="0">
          <mxGeometry x="0.2728" y="2" relative="1" as="geometry">
            <mxPoint as="offset" />
          </mxGeometry>
        </mxCell>
        <mxCell id="UUl44Q_bIR5ZF49A4Y3q-127" value="" style="edgeStyle=orthogonalEdgeStyle;rounded=0;orthogonalLoop=1;jettySize=auto;html=1;fontSize=8;endSize=4;" parent="UUl44Q_bIR5ZF49A4Y3q-2" source="UUl44Q_bIR5ZF49A4Y3q-129" target="UUl44Q_bIR5ZF49A4Y3q-135" edge="1">
          <mxGeometry relative="1" as="geometry" />
        </mxCell>
        <mxCell id="UUl44Q_bIR5ZF49A4Y3q-128" value="&lt;font&gt;NÃO&lt;/font&gt;" style="edgeLabel;html=1;align=center;verticalAlign=middle;resizable=0;points=[];fontSize=8;" parent="UUl44Q_bIR5ZF49A4Y3q-127" vertex="1" connectable="0">
          <mxGeometry x="-0.6733" relative="1" as="geometry">
            <mxPoint x="10" as="offset" />
          </mxGeometry>
        </mxCell>
        <mxCell id="UUl44Q_bIR5ZF49A4Y3q-129" value="Seguiu a dieta?" style="rhombus;whiteSpace=wrap;html=1;labelPosition=center;verticalLabelPosition=bottom;align=center;verticalAlign=top;fontSize=8;fillColor=#ffe6cc;strokeColor=#d79b00;" parent="UUl44Q_bIR5ZF49A4Y3q-2" vertex="1">
          <mxGeometry x="1410" y="80" width="40" height="40" as="geometry" />
        </mxCell>
        <mxCell id="UUl44Q_bIR5ZF49A4Y3q-130" style="edgeStyle=orthogonalEdgeStyle;rounded=0;orthogonalLoop=1;jettySize=auto;html=1;entryX=0;entryY=0.5;entryDx=0;entryDy=0;endSize=4;" parent="UUl44Q_bIR5ZF49A4Y3q-2" source="UUl44Q_bIR5ZF49A4Y3q-131" target="UUl44Q_bIR5ZF49A4Y3q-129" edge="1">
          <mxGeometry relative="1" as="geometry" />
        </mxCell>
        <mxCell id="UUl44Q_bIR5ZF49A4Y3q-131" value="&lt;font&gt;Acompanha dados&lt;/font&gt;&lt;div&gt;&lt;span style=&quot;background-color: transparent; color: light-dark(rgb(0, 0, 0), rgb(255, 255, 255));&quot;&gt;de entrada do paciente&lt;/span&gt;&lt;div&gt;&lt;div&gt;&lt;font&gt;pelo App&lt;/font&gt;&lt;/div&gt;&lt;/div&gt;&lt;/div&gt;" style="verticalLabelPosition=top;verticalAlign=bottom;html=1;shape=mxgraph.flowchart.on-page_reference;fontSize=8;labelPosition=center;align=center;fillColor=#fff2cc;strokeColor=#d6b656;" parent="UUl44Q_bIR5ZF49A4Y3q-2" vertex="1">
          <mxGeometry x="1350" y="90" width="20" height="20" as="geometry" />
        </mxCell>
        <mxCell id="UUl44Q_bIR5ZF49A4Y3q-133" value="Mantêm a dieta" style="rounded=1;whiteSpace=wrap;html=1;fontSize=8;fillColor=#f5f5f5;fontColor=#333333;strokeColor=#666666;" parent="UUl44Q_bIR5ZF49A4Y3q-2" vertex="1">
          <mxGeometry x="1500" y="20" width="70" height="40" as="geometry" />
        </mxCell>
        <mxCell id="UUl44Q_bIR5ZF49A4Y3q-134" value="" style="edgeStyle=orthogonalEdgeStyle;rounded=0;orthogonalLoop=1;jettySize=auto;html=1;endSize=4;" parent="UUl44Q_bIR5ZF49A4Y3q-2" source="UUl44Q_bIR5ZF49A4Y3q-135" target="UUl44Q_bIR5ZF49A4Y3q-138" edge="1">
          <mxGeometry relative="1" as="geometry" />
        </mxCell>
        <mxCell id="UUl44Q_bIR5ZF49A4Y3q-135" value="Entende o motivo e restrições pelos dados de entrada do paciente" style="rounded=1;whiteSpace=wrap;html=1;fontSize=8;fillColor=#f5f5f5;fontColor=#333333;strokeColor=#666666;" parent="UUl44Q_bIR5ZF49A4Y3q-2" vertex="1">
          <mxGeometry x="1500" y="80" width="70" height="40" as="geometry" />
        </mxCell>
        <mxCell id="UUl44Q_bIR5ZF49A4Y3q-138" value="Atualiza dieta" style="rounded=1;whiteSpace=wrap;html=1;fontSize=8;fillColor=#f5f5f5;fontColor=#333333;strokeColor=#666666;" parent="UUl44Q_bIR5ZF49A4Y3q-2" vertex="1">
          <mxGeometry x="1600" y="80" width="70" height="40" as="geometry" />
        </mxCell>
        <mxCell id="UUl44Q_bIR5ZF49A4Y3q-214" value="" style="edgeStyle=orthogonalEdgeStyle;rounded=0;orthogonalLoop=1;jettySize=auto;html=1;endSize=4;" parent="UUl44Q_bIR5ZF49A4Y3q-2" source="UUl44Q_bIR5ZF49A4Y3q-144" target="UUl44Q_bIR5ZF49A4Y3q-118" edge="1">
          <mxGeometry relative="1" as="geometry" />
        </mxCell>
        <mxCell id="UUl44Q_bIR5ZF49A4Y3q-144" value="Confirma dados cadastrados" style="rounded=1;whiteSpace=wrap;html=1;fontSize=8;fillColor=#f5f5f5;strokeColor=#666666;fontColor=#333333;" parent="UUl44Q_bIR5ZF49A4Y3q-2" vertex="1">
          <mxGeometry x="276" y="60" width="70" height="40" as="geometry" />
        </mxCell>
        <mxCell id="UUl44Q_bIR5ZF49A4Y3q-145" value="Acessa a plataforma" style="rounded=1;whiteSpace=wrap;html=1;fontSize=8;fillColor=#f5f5f5;strokeColor=#666666;fontColor=#333333;" parent="UUl44Q_bIR5ZF49A4Y3q-2" vertex="1">
          <mxGeometry x="640" y="60" width="70" height="40" as="geometry" />
        </mxCell>
        <mxCell id="UUl44Q_bIR5ZF49A4Y3q-217" value="" style="edgeStyle=orthogonalEdgeStyle;rounded=0;orthogonalLoop=1;jettySize=auto;html=1;endSize=4;" parent="UUl44Q_bIR5ZF49A4Y3q-2" source="UUl44Q_bIR5ZF49A4Y3q-146" target="UUl44Q_bIR5ZF49A4Y3q-145" edge="1">
          <mxGeometry relative="1" as="geometry" />
        </mxCell>
        <mxCell id="UUl44Q_bIR5ZF49A4Y3q-146" value="Aguarda confirmação&lt;div&gt;de pagamento&lt;/div&gt;" style="verticalLabelPosition=top;verticalAlign=bottom;html=1;shape=mxgraph.flowchart.on-page_reference;fillColor=#fff2cc;strokeColor=#d6b656;fontSize=8;labelPosition=center;align=center;" parent="UUl44Q_bIR5ZF49A4Y3q-2" vertex="1">
          <mxGeometry x="590" y="70" width="20" height="20" as="geometry" />
        </mxCell>
        <mxCell id="Qf3NjimF2T0bbUfOxqCO-256" style="edgeStyle=orthogonalEdgeStyle;rounded=0;orthogonalLoop=1;jettySize=auto;html=1;entryX=0;entryY=0.5;entryDx=0;entryDy=0;entryPerimeter=0;endSize=4;" edge="1" parent="UUl44Q_bIR5ZF49A4Y3q-2" source="UUl44Q_bIR5ZF49A4Y3q-145" target="UUl44Q_bIR5ZF49A4Y3q-121">
          <mxGeometry relative="1" as="geometry" />
        </mxCell>
        <mxCell id="Qf3NjimF2T0bbUfOxqCO-260" value="Login no App" style="rounded=1;whiteSpace=wrap;html=1;fontSize=8;fillColor=#f5f5f5;fontColor=#333333;strokeColor=#666666;" vertex="1" parent="UUl44Q_bIR5ZF49A4Y3q-2">
          <mxGeometry x="1150" y="80" width="70" height="40" as="geometry" />
        </mxCell>
        <mxCell id="Qf3NjimF2T0bbUfOxqCO-283" value="" style="edgeStyle=orthogonalEdgeStyle;rounded=0;orthogonalLoop=1;jettySize=auto;html=1;endSize=4;" edge="1" parent="UUl44Q_bIR5ZF49A4Y3q-2" source="Qf3NjimF2T0bbUfOxqCO-191" target="UUl44Q_bIR5ZF49A4Y3q-131">
          <mxGeometry relative="1" as="geometry" />
        </mxCell>
        <mxCell id="Qf3NjimF2T0bbUfOxqCO-191" value="Dashboard com visão geral de pacientes" style="rounded=1;whiteSpace=wrap;html=1;fontSize=8;fillColor=#f5f5f5;strokeColor=#666666;fontColor=#333333;" vertex="1" parent="UUl44Q_bIR5ZF49A4Y3q-2">
          <mxGeometry x="1250" y="80" width="70" height="40" as="geometry" />
        </mxCell>
        <mxCell id="UUl44Q_bIR5ZF49A4Y3q-34" value="Cadastro e Controle de Acesso (Sistema)" style="swimlane;html=1;startSize=20;horizontal=0;" parent="UUl44Q_bIR5ZF49A4Y3q-1" vertex="1">
          <mxGeometry x="20" y="170" width="1750" height="240" as="geometry" />
        </mxCell>
        <mxCell id="Qf3NjimF2T0bbUfOxqCO-162" value="" style="edgeStyle=orthogonalEdgeStyle;rounded=0;orthogonalLoop=1;jettySize=auto;html=1;endSize=4;" edge="1" parent="UUl44Q_bIR5ZF49A4Y3q-34" source="UUl44Q_bIR5ZF49A4Y3q-36" target="UUl44Q_bIR5ZF49A4Y3q-141">
          <mxGeometry relative="1" as="geometry" />
        </mxCell>
        <mxCell id="UUl44Q_bIR5ZF49A4Y3q-36" value="&lt;font&gt;Aguarda envio&lt;/font&gt;&lt;div&gt;&lt;font&gt;de formulário&lt;/font&gt;&lt;/div&gt;&lt;div&gt;&lt;font&gt;de cadastro&lt;/font&gt;&lt;/div&gt;" style="verticalLabelPosition=bottom;verticalAlign=top;html=1;shape=mxgraph.flowchart.on-page_reference;fillColor=#fff2cc;strokeColor=#d6b656;fontSize=8;" parent="UUl44Q_bIR5ZF49A4Y3q-34" vertex="1">
          <mxGeometry x="80" y="111.98" width="20" height="20" as="geometry" />
        </mxCell>
        <mxCell id="Qf3NjimF2T0bbUfOxqCO-163" value="" style="edgeStyle=orthogonalEdgeStyle;rounded=0;orthogonalLoop=1;jettySize=auto;html=1;endSize=4;" edge="1" parent="UUl44Q_bIR5ZF49A4Y3q-34" source="UUl44Q_bIR5ZF49A4Y3q-141" target="UUl44Q_bIR5ZF49A4Y3q-142">
          <mxGeometry relative="1" as="geometry" />
        </mxCell>
        <mxCell id="UUl44Q_bIR5ZF49A4Y3q-141" value="Valida os dados preenchidos" style="rounded=1;whiteSpace=wrap;html=1;fontSize=8;fillColor=#f5f5f5;strokeColor=#666666;fontColor=#333333;" parent="UUl44Q_bIR5ZF49A4Y3q-34" vertex="1">
          <mxGeometry x="140" y="101.98" width="70" height="40" as="geometry" />
        </mxCell>
        <mxCell id="Qf3NjimF2T0bbUfOxqCO-164" value="" style="edgeStyle=orthogonalEdgeStyle;rounded=0;orthogonalLoop=1;jettySize=auto;html=1;endSize=4;" edge="1" parent="UUl44Q_bIR5ZF49A4Y3q-34" source="UUl44Q_bIR5ZF49A4Y3q-142" target="UUl44Q_bIR5ZF49A4Y3q-209">
          <mxGeometry relative="1" as="geometry" />
        </mxCell>
        <mxCell id="UUl44Q_bIR5ZF49A4Y3q-142" value="Salva dados no Banco de Dados" style="rounded=1;whiteSpace=wrap;html=1;fontSize=8;fillColor=#f5f5f5;strokeColor=#666666;fontColor=#333333;" parent="UUl44Q_bIR5ZF49A4Y3q-34" vertex="1">
          <mxGeometry x="250" y="101.98" width="70" height="40" as="geometry" />
        </mxCell>
        <mxCell id="UUl44Q_bIR5ZF49A4Y3q-143" value="Envia e-mail de confirmação" style="rounded=1;whiteSpace=wrap;html=1;fontSize=8;fillColor=#f5f5f5;strokeColor=#666666;fontColor=#333333;" parent="UUl44Q_bIR5ZF49A4Y3q-34" vertex="1">
          <mxGeometry x="460" y="40" width="70" height="40" as="geometry" />
        </mxCell>
        <mxCell id="Qf3NjimF2T0bbUfOxqCO-165" style="edgeStyle=orthogonalEdgeStyle;rounded=0;orthogonalLoop=1;jettySize=auto;html=1;entryX=0;entryY=0.5;entryDx=0;entryDy=0;endSize=4;" edge="1" parent="UUl44Q_bIR5ZF49A4Y3q-34" source="UUl44Q_bIR5ZF49A4Y3q-209" target="UUl44Q_bIR5ZF49A4Y3q-143">
          <mxGeometry relative="1" as="geometry">
            <Array as="points">
              <mxPoint x="380" y="59.980000000000004" />
            </Array>
          </mxGeometry>
        </mxCell>
        <mxCell id="Qf3NjimF2T0bbUfOxqCO-166" value="" style="edgeStyle=orthogonalEdgeStyle;rounded=0;orthogonalLoop=1;jettySize=auto;html=1;endSize=4;" edge="1" parent="UUl44Q_bIR5ZF49A4Y3q-34" source="UUl44Q_bIR5ZF49A4Y3q-209" target="UUl44Q_bIR5ZF49A4Y3q-210">
          <mxGeometry relative="1" as="geometry" />
        </mxCell>
        <mxCell id="UUl44Q_bIR5ZF49A4Y3q-209" value="Cadastro de Nutricionista?" style="rhombus;whiteSpace=wrap;html=1;labelPosition=center;verticalLabelPosition=bottom;align=center;verticalAlign=top;fontSize=8;fillColor=#ffe6cc;strokeColor=#d79b00;" parent="UUl44Q_bIR5ZF49A4Y3q-34" vertex="1">
          <mxGeometry x="360" y="101.98" width="40" height="40" as="geometry" />
        </mxCell>
        <mxCell id="UUl44Q_bIR5ZF49A4Y3q-210" value="Envia e-mail de com dados de acesso" style="rounded=1;whiteSpace=wrap;html=1;fontSize=8;fillColor=#f5f5f5;strokeColor=#666666;fontColor=#333333;" parent="UUl44Q_bIR5ZF49A4Y3q-34" vertex="1">
          <mxGeometry x="460" y="101.98" width="70" height="40" as="geometry" />
        </mxCell>
        <mxCell id="UUl44Q_bIR5ZF49A4Y3q-207" value="&lt;font style=&quot;font-size: 8px;&quot;&gt;SIM&lt;/font&gt;" style="edgeLabel;html=1;align=center;verticalAlign=middle;resizable=0;points=[];" parent="UUl44Q_bIR5ZF49A4Y3q-34" vertex="1" connectable="0">
          <mxGeometry x="409.74203800588316" y="59.99643836409335" as="geometry">
            <mxPoint x="2" y="-2" as="offset" />
          </mxGeometry>
        </mxCell>
        <mxCell id="UUl44Q_bIR5ZF49A4Y3q-208" value="&lt;font&gt;NÃO&lt;/font&gt;" style="edgeLabel;html=1;align=center;verticalAlign=middle;resizable=0;points=[];fontSize=8;" parent="UUl44Q_bIR5ZF49A4Y3q-34" vertex="1" connectable="0">
          <mxGeometry x="418" y="121.98" as="geometry" />
        </mxCell>
        <mxCell id="Qf3NjimF2T0bbUfOxqCO-167" value="" style="verticalLabelPosition=bottom;verticalAlign=top;html=1;shape=mxgraph.flowchart.on-page_reference;fillColor=#f8cecc;strokeColor=#b85450;fontSize=8;" vertex="1" parent="UUl44Q_bIR5ZF49A4Y3q-34">
          <mxGeometry x="570" y="81.98" width="20" height="20" as="geometry" />
        </mxCell>
        <mxCell id="Qf3NjimF2T0bbUfOxqCO-168" style="edgeStyle=orthogonalEdgeStyle;rounded=0;orthogonalLoop=1;jettySize=auto;html=1;entryX=0.5;entryY=0;entryDx=0;entryDy=0;entryPerimeter=0;endSize=4;" edge="1" parent="UUl44Q_bIR5ZF49A4Y3q-34" source="UUl44Q_bIR5ZF49A4Y3q-143" target="Qf3NjimF2T0bbUfOxqCO-167">
          <mxGeometry relative="1" as="geometry" />
        </mxCell>
        <mxCell id="Qf3NjimF2T0bbUfOxqCO-169" style="edgeStyle=orthogonalEdgeStyle;rounded=0;orthogonalLoop=1;jettySize=auto;html=1;entryX=0.5;entryY=1;entryDx=0;entryDy=0;entryPerimeter=0;endSize=4;" edge="1" parent="UUl44Q_bIR5ZF49A4Y3q-34" source="UUl44Q_bIR5ZF49A4Y3q-210" target="Qf3NjimF2T0bbUfOxqCO-167">
          <mxGeometry relative="1" as="geometry" />
        </mxCell>
        <mxCell id="Qf3NjimF2T0bbUfOxqCO-170" value="" style="edgeStyle=orthogonalEdgeStyle;rounded=0;orthogonalLoop=1;jettySize=auto;html=1;endSize=4;" edge="1" parent="UUl44Q_bIR5ZF49A4Y3q-34" source="Qf3NjimF2T0bbUfOxqCO-171" target="Qf3NjimF2T0bbUfOxqCO-173">
          <mxGeometry relative="1" as="geometry" />
        </mxCell>
        <mxCell id="Qf3NjimF2T0bbUfOxqCO-171" value="&lt;font&gt;Aguarda envio&lt;/font&gt;&lt;div&gt;&lt;font&gt;de formulário&lt;/font&gt;&lt;/div&gt;&lt;div&gt;&lt;font&gt;de acesso&lt;/font&gt;&lt;/div&gt;" style="verticalLabelPosition=bottom;verticalAlign=top;html=1;shape=mxgraph.flowchart.on-page_reference;fillColor=#fff2cc;strokeColor=#d6b656;fontSize=8;" vertex="1" parent="UUl44Q_bIR5ZF49A4Y3q-34">
          <mxGeometry x="670" y="160.99000000000004" width="20" height="20" as="geometry" />
        </mxCell>
        <mxCell id="Qf3NjimF2T0bbUfOxqCO-172" value="" style="edgeStyle=orthogonalEdgeStyle;rounded=0;orthogonalLoop=1;jettySize=auto;html=1;endSize=4;entryX=0;entryY=0.5;entryDx=0;entryDy=0;" edge="1" parent="UUl44Q_bIR5ZF49A4Y3q-34" source="Qf3NjimF2T0bbUfOxqCO-173" target="Qf3NjimF2T0bbUfOxqCO-179">
          <mxGeometry relative="1" as="geometry">
            <mxPoint x="840.0000000000002" y="170.99000000000004" as="targetPoint" />
          </mxGeometry>
        </mxCell>
        <mxCell id="Qf3NjimF2T0bbUfOxqCO-173" value="Verifica campos de email e senha no Banco de Dados" style="rounded=1;whiteSpace=wrap;html=1;fontSize=8;fillColor=#f5f5f5;strokeColor=#666666;fontColor=#333333;" vertex="1" parent="UUl44Q_bIR5ZF49A4Y3q-34">
          <mxGeometry x="730" y="150.99000000000004" width="70" height="40" as="geometry" />
        </mxCell>
        <mxCell id="Qf3NjimF2T0bbUfOxqCO-177" style="edgeStyle=orthogonalEdgeStyle;rounded=0;orthogonalLoop=1;jettySize=auto;html=1;entryX=0;entryY=0.5;entryDx=0;entryDy=0;endSize=4;" edge="1" parent="UUl44Q_bIR5ZF49A4Y3q-34" source="Qf3NjimF2T0bbUfOxqCO-179" target="Qf3NjimF2T0bbUfOxqCO-187">
          <mxGeometry relative="1" as="geometry">
            <Array as="points">
              <mxPoint x="860" y="89.99999999999999" />
            </Array>
            <mxPoint x="940" y="109.01" as="targetPoint" />
          </mxGeometry>
        </mxCell>
        <mxCell id="Qf3NjimF2T0bbUfOxqCO-178" value="" style="edgeStyle=orthogonalEdgeStyle;rounded=0;orthogonalLoop=1;jettySize=auto;html=1;endSize=4;" edge="1" parent="UUl44Q_bIR5ZF49A4Y3q-34" source="Qf3NjimF2T0bbUfOxqCO-179" target="Qf3NjimF2T0bbUfOxqCO-180">
          <mxGeometry relative="1" as="geometry" />
        </mxCell>
        <mxCell id="Qf3NjimF2T0bbUfOxqCO-179" value="Dados Corretos?" style="rhombus;whiteSpace=wrap;html=1;labelPosition=center;verticalLabelPosition=bottom;align=center;verticalAlign=top;fontSize=8;fillColor=#ffe6cc;strokeColor=#d79b00;" vertex="1" parent="UUl44Q_bIR5ZF49A4Y3q-34">
          <mxGeometry x="840" y="150.99000000000004" width="40" height="40" as="geometry" />
        </mxCell>
        <mxCell id="Qf3NjimF2T0bbUfOxqCO-180" value="Envia mensagem de erro no acesso" style="rounded=1;whiteSpace=wrap;html=1;fontSize=8;fillColor=#f5f5f5;strokeColor=#666666;fontColor=#333333;" vertex="1" parent="UUl44Q_bIR5ZF49A4Y3q-34">
          <mxGeometry x="940" y="150.99000000000004" width="70" height="40" as="geometry" />
        </mxCell>
        <mxCell id="Qf3NjimF2T0bbUfOxqCO-181" value="&lt;font style=&quot;font-size: 8px;&quot;&gt;SIM&lt;/font&gt;" style="edgeLabel;html=1;align=center;verticalAlign=middle;resizable=0;points=[];" vertex="1" connectable="0" parent="UUl44Q_bIR5ZF49A4Y3q-34">
          <mxGeometry x="889.7420380058832" y="89.99643836409335" as="geometry">
            <mxPoint x="2" y="-2" as="offset" />
          </mxGeometry>
        </mxCell>
        <mxCell id="Qf3NjimF2T0bbUfOxqCO-182" value="&lt;font&gt;NÃO&lt;/font&gt;" style="edgeLabel;html=1;align=center;verticalAlign=middle;resizable=0;points=[];fontSize=8;" vertex="1" connectable="0" parent="UUl44Q_bIR5ZF49A4Y3q-34">
          <mxGeometry x="898" y="170.99000000000004" as="geometry" />
        </mxCell>
        <mxCell id="Qf3NjimF2T0bbUfOxqCO-187" value="Usuário é Nutricionista?" style="rhombus;whiteSpace=wrap;html=1;labelPosition=center;verticalLabelPosition=bottom;align=center;verticalAlign=top;fontSize=8;fillColor=#ffe6cc;strokeColor=#d79b00;" vertex="1" parent="UUl44Q_bIR5ZF49A4Y3q-34">
          <mxGeometry x="955" y="70.00000000000001" width="40" height="40" as="geometry" />
        </mxCell>
        <mxCell id="Qf3NjimF2T0bbUfOxqCO-188" value="&lt;font style=&quot;font-size: 8px;&quot;&gt;SIM&lt;/font&gt;" style="edgeLabel;html=1;align=center;verticalAlign=middle;resizable=0;points=[];" vertex="1" connectable="0" parent="UUl44Q_bIR5ZF49A4Y3q-34">
          <mxGeometry x="1010.0020380058832" y="49.99643836409335" as="geometry">
            <mxPoint x="7" y="-1" as="offset" />
          </mxGeometry>
        </mxCell>
        <mxCell id="Qf3NjimF2T0bbUfOxqCO-189" value="&lt;font&gt;NÃO&lt;/font&gt;" style="edgeLabel;html=1;align=center;verticalAlign=middle;resizable=0;points=[];fontSize=8;" vertex="1" connectable="0" parent="UUl44Q_bIR5ZF49A4Y3q-34">
          <mxGeometry x="1010" y="90.00000000000001" as="geometry" />
        </mxCell>
        <mxCell id="Qf3NjimF2T0bbUfOxqCO-258" value="Informações do paciente" style="shape=note;whiteSpace=wrap;html=1;backgroundOutline=1;darkOpacity=0.05;size=8;fontSize=8;labelPosition=center;verticalLabelPosition=bottom;align=center;verticalAlign=top;fillColor=#dae8fc;strokeColor=#6c8ebf;" vertex="1" parent="UUl44Q_bIR5ZF49A4Y3q-34">
          <mxGeometry x="272.5" y="170.99" width="25" height="30" as="geometry" />
        </mxCell>
        <mxCell id="Qf3NjimF2T0bbUfOxqCO-259" style="edgeStyle=orthogonalEdgeStyle;rounded=0;orthogonalLoop=1;jettySize=auto;html=1;entryX=0.5;entryY=0;entryDx=0;entryDy=0;entryPerimeter=0;endSize=4;dashed=1;dashPattern=1 4;" edge="1" parent="UUl44Q_bIR5ZF49A4Y3q-34" source="UUl44Q_bIR5ZF49A4Y3q-142" target="Qf3NjimF2T0bbUfOxqCO-258">
          <mxGeometry relative="1" as="geometry" />
        </mxCell>
        <mxCell id="UUl44Q_bIR5ZF49A4Y3q-56" value="Acompanhamento (Sistema)" style="swimlane;html=1;startSize=20;horizontal=0;" parent="UUl44Q_bIR5ZF49A4Y3q-1" vertex="1">
          <mxGeometry x="20" y="410" width="1750" height="180" as="geometry" />
        </mxCell>
        <mxCell id="Qf3NjimF2T0bbUfOxqCO-208" value="" style="edgeStyle=orthogonalEdgeStyle;rounded=0;orthogonalLoop=1;jettySize=auto;html=1;entryX=0;entryY=0.5;entryDx=0;entryDy=0;endSize=4;" edge="1" parent="UUl44Q_bIR5ZF49A4Y3q-56" source="UUl44Q_bIR5ZF49A4Y3q-78" target="UUl44Q_bIR5ZF49A4Y3q-226">
          <mxGeometry relative="1" as="geometry" />
        </mxCell>
        <mxCell id="UUl44Q_bIR5ZF49A4Y3q-78" value="Recebe requisição&lt;div&gt;de alteração&lt;/div&gt;&lt;div&gt;de dieta&lt;/div&gt;" style="verticalLabelPosition=top;verticalAlign=bottom;html=1;shape=mxgraph.flowchart.on-page_reference;fillColor=#fff2cc;strokeColor=#d6b656;fontSize=8;labelPosition=center;align=center;" parent="UUl44Q_bIR5ZF49A4Y3q-56" vertex="1">
          <mxGeometry x="90" y="100" width="20" height="20" as="geometry" />
        </mxCell>
        <mxCell id="UUl44Q_bIR5ZF49A4Y3q-225" value="Dieta" style="shape=note;whiteSpace=wrap;html=1;backgroundOutline=1;darkOpacity=0.05;size=8;fontSize=8;labelPosition=center;verticalLabelPosition=top;align=center;verticalAlign=bottom;fillColor=#dae8fc;strokeColor=#6c8ebf;" parent="UUl44Q_bIR5ZF49A4Y3q-56" vertex="1">
          <mxGeometry x="342.5" y="30" width="25" height="30" as="geometry" />
        </mxCell>
        <mxCell id="Qf3NjimF2T0bbUfOxqCO-210" value="" style="edgeStyle=orthogonalEdgeStyle;rounded=0;orthogonalLoop=1;jettySize=auto;html=1;endSize=4;" edge="1" parent="UUl44Q_bIR5ZF49A4Y3q-56" source="UUl44Q_bIR5ZF49A4Y3q-226" target="Qf3NjimF2T0bbUfOxqCO-209">
          <mxGeometry relative="1" as="geometry" />
        </mxCell>
        <mxCell id="UUl44Q_bIR5ZF49A4Y3q-226" value="Envia e-mail de alteração de dieta para Nutricionista" style="rounded=1;whiteSpace=wrap;html=1;fontSize=8;fillColor=#f5f5f5;strokeColor=#666666;fontColor=#333333;" parent="UUl44Q_bIR5ZF49A4Y3q-56" vertex="1">
          <mxGeometry x="150" y="90" width="70" height="40" as="geometry" />
        </mxCell>
        <mxCell id="Qf3NjimF2T0bbUfOxqCO-206" value="Informações do paciente" style="shape=note;whiteSpace=wrap;html=1;backgroundOutline=1;darkOpacity=0.05;size=8;fontSize=8;labelPosition=center;verticalLabelPosition=top;align=center;verticalAlign=bottom;fillColor=#dae8fc;strokeColor=#6c8ebf;" vertex="1" parent="UUl44Q_bIR5ZF49A4Y3q-56">
          <mxGeometry x="931.62" y="30" width="25" height="30" as="geometry" />
        </mxCell>
        <mxCell id="Qf3NjimF2T0bbUfOxqCO-225" value="" style="edgeStyle=orthogonalEdgeStyle;rounded=0;orthogonalLoop=1;jettySize=auto;html=1;endSize=4;" edge="1" parent="UUl44Q_bIR5ZF49A4Y3q-56" source="Qf3NjimF2T0bbUfOxqCO-209" target="Qf3NjimF2T0bbUfOxqCO-224">
          <mxGeometry relative="1" as="geometry" />
        </mxCell>
        <mxCell id="Qf3NjimF2T0bbUfOxqCO-209" value="Aguarda criação/alteração&lt;div&gt;de dieta&lt;/div&gt;" style="verticalLabelPosition=bottom;verticalAlign=top;html=1;shape=mxgraph.flowchart.on-page_reference;fillColor=#fff2cc;strokeColor=#d6b656;fontSize=8;" vertex="1" parent="UUl44Q_bIR5ZF49A4Y3q-56">
          <mxGeometry x="260" y="100" width="20" height="20" as="geometry" />
        </mxCell>
        <mxCell id="Qf3NjimF2T0bbUfOxqCO-214" value="" style="edgeStyle=orthogonalEdgeStyle;rounded=0;orthogonalLoop=1;jettySize=auto;html=1;endSize=4;" edge="1" parent="UUl44Q_bIR5ZF49A4Y3q-56" source="Qf3NjimF2T0bbUfOxqCO-211" target="Qf3NjimF2T0bbUfOxqCO-213">
          <mxGeometry relative="1" as="geometry" />
        </mxCell>
        <mxCell id="Qf3NjimF2T0bbUfOxqCO-211" value="Envia e-mail de&amp;nbsp; dieta alterada para Paciente" style="rounded=1;whiteSpace=wrap;html=1;fontSize=8;fillColor=#f5f5f5;strokeColor=#666666;fontColor=#333333;" vertex="1" parent="UUl44Q_bIR5ZF49A4Y3q-56">
          <mxGeometry x="435" y="90" width="70" height="40" as="geometry" />
        </mxCell>
        <mxCell id="Qf3NjimF2T0bbUfOxqCO-213" value="" style="verticalLabelPosition=bottom;verticalAlign=top;html=1;shape=mxgraph.flowchart.on-page_reference;fillColor=#f8cecc;strokeColor=#b85450;fontSize=8;" vertex="1" parent="UUl44Q_bIR5ZF49A4Y3q-56">
          <mxGeometry x="543.25" y="100" width="20" height="20" as="geometry" />
        </mxCell>
        <mxCell id="Qf3NjimF2T0bbUfOxqCO-226" value="" style="edgeStyle=orthogonalEdgeStyle;rounded=0;orthogonalLoop=1;jettySize=auto;html=1;endSize=4;dashed=1;dashPattern=1 4;" edge="1" parent="UUl44Q_bIR5ZF49A4Y3q-56" source="Qf3NjimF2T0bbUfOxqCO-224" target="UUl44Q_bIR5ZF49A4Y3q-225">
          <mxGeometry relative="1" as="geometry" />
        </mxCell>
        <mxCell id="Qf3NjimF2T0bbUfOxqCO-227" value="" style="edgeStyle=orthogonalEdgeStyle;rounded=0;orthogonalLoop=1;jettySize=auto;html=1;endSize=4;" edge="1" parent="UUl44Q_bIR5ZF49A4Y3q-56" source="Qf3NjimF2T0bbUfOxqCO-224" target="Qf3NjimF2T0bbUfOxqCO-211">
          <mxGeometry relative="1" as="geometry" />
        </mxCell>
        <mxCell id="Qf3NjimF2T0bbUfOxqCO-224" value="Salva nova dieta no Banco de Dados" style="rounded=1;whiteSpace=wrap;html=1;fontSize=8;fillColor=#f5f5f5;strokeColor=#666666;fontColor=#333333;" vertex="1" parent="UUl44Q_bIR5ZF49A4Y3q-56">
          <mxGeometry x="320" y="90" width="70" height="40" as="geometry" />
        </mxCell>
        <mxCell id="Qf3NjimF2T0bbUfOxqCO-235" value="" style="edgeStyle=orthogonalEdgeStyle;rounded=0;orthogonalLoop=1;jettySize=auto;html=1;entryX=0;entryY=0.5;entryDx=0;entryDy=0;endSize=4;" edge="1" parent="UUl44Q_bIR5ZF49A4Y3q-56" source="Qf3NjimF2T0bbUfOxqCO-236" target="Qf3NjimF2T0bbUfOxqCO-239">
          <mxGeometry relative="1" as="geometry" />
        </mxCell>
        <mxCell id="Qf3NjimF2T0bbUfOxqCO-236" value="Recebe requisição&lt;div&gt;de alteração de&lt;/div&gt;&lt;div&gt;&lt;span style=&quot;background-color: transparent; color: light-dark(rgb(0, 0, 0), rgb(255, 255, 255));&quot;&gt;dados do paciente&lt;/span&gt;&lt;/div&gt;" style="verticalLabelPosition=top;verticalAlign=bottom;html=1;shape=mxgraph.flowchart.on-page_reference;fillColor=#fff2cc;strokeColor=#d6b656;fontSize=8;labelPosition=center;align=center;" vertex="1" parent="UUl44Q_bIR5ZF49A4Y3q-56">
          <mxGeometry x="730" y="100" width="20" height="20" as="geometry" />
        </mxCell>
        <mxCell id="Qf3NjimF2T0bbUfOxqCO-238" value="" style="edgeStyle=orthogonalEdgeStyle;rounded=0;orthogonalLoop=1;jettySize=auto;html=1;endSize=4;entryX=0;entryY=0.5;entryDx=0;entryDy=0;" edge="1" parent="UUl44Q_bIR5ZF49A4Y3q-56" source="Qf3NjimF2T0bbUfOxqCO-239" target="Qf3NjimF2T0bbUfOxqCO-247">
          <mxGeometry relative="1" as="geometry">
            <mxPoint x="900.0000000000001" y="110" as="targetPoint" />
          </mxGeometry>
        </mxCell>
        <mxCell id="Qf3NjimF2T0bbUfOxqCO-239" value="Envia e-mail de alteração de dados para Nutricionista" style="rounded=1;whiteSpace=wrap;html=1;fontSize=8;fillColor=#f5f5f5;strokeColor=#666666;fontColor=#333333;" vertex="1" parent="UUl44Q_bIR5ZF49A4Y3q-56">
          <mxGeometry x="790" y="90" width="70" height="40" as="geometry" />
        </mxCell>
        <mxCell id="Qf3NjimF2T0bbUfOxqCO-242" value="" style="edgeStyle=orthogonalEdgeStyle;rounded=0;orthogonalLoop=1;jettySize=auto;html=1;endSize=4;" edge="1" parent="UUl44Q_bIR5ZF49A4Y3q-56" source="Qf3NjimF2T0bbUfOxqCO-243" target="Qf3NjimF2T0bbUfOxqCO-244">
          <mxGeometry relative="1" as="geometry" />
        </mxCell>
        <mxCell id="Qf3NjimF2T0bbUfOxqCO-243" value="Notificação para Nutricionista" style="rounded=1;whiteSpace=wrap;html=1;fontSize=8;fillColor=#f5f5f5;strokeColor=#666666;fontColor=#333333;" vertex="1" parent="UUl44Q_bIR5ZF49A4Y3q-56">
          <mxGeometry x="1011.62" y="90" width="70" height="40" as="geometry" />
        </mxCell>
        <mxCell id="Qf3NjimF2T0bbUfOxqCO-244" value="" style="verticalLabelPosition=bottom;verticalAlign=top;html=1;shape=mxgraph.flowchart.on-page_reference;fillColor=#f8cecc;strokeColor=#b85450;fontSize=8;" vertex="1" parent="UUl44Q_bIR5ZF49A4Y3q-56">
          <mxGeometry x="1121.62" y="100" width="20" height="20" as="geometry" />
        </mxCell>
        <mxCell id="Qf3NjimF2T0bbUfOxqCO-245" value="" style="edgeStyle=orthogonalEdgeStyle;rounded=0;orthogonalLoop=1;jettySize=auto;html=1;endSize=4;dashed=1;dashPattern=1 4;entryX=0.5;entryY=1;entryDx=0;entryDy=0;entryPerimeter=0;exitX=0.5;exitY=0;exitDx=0;exitDy=0;" edge="1" parent="UUl44Q_bIR5ZF49A4Y3q-56" source="Qf3NjimF2T0bbUfOxqCO-247" target="Qf3NjimF2T0bbUfOxqCO-206">
          <mxGeometry relative="1" as="geometry">
            <mxPoint x="995.0199999999999" y="70" as="targetPoint" />
          </mxGeometry>
        </mxCell>
        <mxCell id="Qf3NjimF2T0bbUfOxqCO-246" value="" style="edgeStyle=orthogonalEdgeStyle;rounded=0;orthogonalLoop=1;jettySize=auto;html=1;endSize=4;" edge="1" parent="UUl44Q_bIR5ZF49A4Y3q-56" source="Qf3NjimF2T0bbUfOxqCO-247" target="Qf3NjimF2T0bbUfOxqCO-243">
          <mxGeometry relative="1" as="geometry" />
        </mxCell>
        <mxCell id="Qf3NjimF2T0bbUfOxqCO-247" value="Salva nova dieta no Banco de Dados" style="rounded=1;whiteSpace=wrap;html=1;fontSize=8;fillColor=#f5f5f5;strokeColor=#666666;fontColor=#333333;" vertex="1" parent="UUl44Q_bIR5ZF49A4Y3q-56">
          <mxGeometry x="901.62" y="90" width="70" height="40" as="geometry" />
        </mxCell>
        <mxCell id="UUl44Q_bIR5ZF49A4Y3q-76" value="Pagamento (Sistema)" style="swimlane;html=1;startSize=20;horizontal=0;" parent="UUl44Q_bIR5ZF49A4Y3q-1" vertex="1">
          <mxGeometry x="20" y="590" width="1750" height="180" as="geometry" />
        </mxCell>
        <mxCell id="UUl44Q_bIR5ZF49A4Y3q-155" style="edgeStyle=orthogonalEdgeStyle;rounded=0;orthogonalLoop=1;jettySize=auto;html=1;entryX=0;entryY=0.5;entryDx=0;entryDy=0;endSize=4;" parent="UUl44Q_bIR5ZF49A4Y3q-76" source="UUl44Q_bIR5ZF49A4Y3q-150" target="UUl44Q_bIR5ZF49A4Y3q-152" edge="1">
          <mxGeometry relative="1" as="geometry">
            <Array as="points">
              <mxPoint x="370" y="28" />
            </Array>
          </mxGeometry>
        </mxCell>
        <mxCell id="UUl44Q_bIR5ZF49A4Y3q-154" value="" style="edgeStyle=orthogonalEdgeStyle;rounded=0;orthogonalLoop=1;jettySize=auto;html=1;endSize=4;" parent="UUl44Q_bIR5ZF49A4Y3q-76" source="UUl44Q_bIR5ZF49A4Y3q-150" target="UUl44Q_bIR5ZF49A4Y3q-153" edge="1">
          <mxGeometry relative="1" as="geometry" />
        </mxCell>
        <mxCell id="UUl44Q_bIR5ZF49A4Y3q-227" value="" style="edgeStyle=orthogonalEdgeStyle;rounded=0;orthogonalLoop=1;jettySize=auto;html=1;endSize=4;" parent="UUl44Q_bIR5ZF49A4Y3q-76" source="UUl44Q_bIR5ZF49A4Y3q-58" target="UUl44Q_bIR5ZF49A4Y3q-156" edge="1">
          <mxGeometry relative="1" as="geometry" />
        </mxCell>
        <mxCell id="UUl44Q_bIR5ZF49A4Y3q-58" value="Aguarda envio&lt;div&gt;de dados&lt;/div&gt;&lt;div&gt;de pagamento&lt;/div&gt;" style="verticalLabelPosition=bottom;verticalAlign=top;html=1;shape=mxgraph.flowchart.on-page_reference;fillColor=#fff2cc;strokeColor=#d6b656;fontSize=8;" parent="UUl44Q_bIR5ZF49A4Y3q-76" vertex="1">
          <mxGeometry x="70" y="80" width="20" height="20" as="geometry" />
        </mxCell>
        <mxCell id="UUl44Q_bIR5ZF49A4Y3q-229" value="" style="edgeStyle=orthogonalEdgeStyle;rounded=0;orthogonalLoop=1;jettySize=auto;html=1;endSize=4;" parent="UUl44Q_bIR5ZF49A4Y3q-76" source="UUl44Q_bIR5ZF49A4Y3q-147" target="UUl44Q_bIR5ZF49A4Y3q-150" edge="1">
          <mxGeometry relative="1" as="geometry" />
        </mxCell>
        <mxCell id="UUl44Q_bIR5ZF49A4Y3q-147" value="Envia dados preenchidos para o Gateway de Pagamento" style="rounded=1;whiteSpace=wrap;html=1;fontSize=8;fillColor=#f5f5f5;strokeColor=#666666;fontColor=#333333;" parent="UUl44Q_bIR5ZF49A4Y3q-76" vertex="1">
          <mxGeometry x="230" y="70" width="70" height="40" as="geometry" />
        </mxCell>
        <mxCell id="UUl44Q_bIR5ZF49A4Y3q-148" value="&lt;font style=&quot;font-size: 8px;&quot;&gt;SIM&lt;/font&gt;" style="edgeLabel;html=1;align=center;verticalAlign=middle;resizable=0;points=[];" parent="UUl44Q_bIR5ZF49A4Y3q-76" vertex="1" connectable="0">
          <mxGeometry x="399.74203800588316" y="28.016438364093233" as="geometry">
            <mxPoint x="2" y="-2" as="offset" />
          </mxGeometry>
        </mxCell>
        <mxCell id="UUl44Q_bIR5ZF49A4Y3q-149" value="&lt;font&gt;NÃO&lt;/font&gt;" style="edgeLabel;html=1;align=center;verticalAlign=middle;resizable=0;points=[];fontSize=8;" parent="UUl44Q_bIR5ZF49A4Y3q-76" vertex="1" connectable="0">
          <mxGeometry x="408" y="90" as="geometry" />
        </mxCell>
        <mxCell id="UUl44Q_bIR5ZF49A4Y3q-150" value="Pagamento confirmado?" style="rhombus;whiteSpace=wrap;html=1;labelPosition=center;verticalLabelPosition=bottom;align=center;verticalAlign=top;fontSize=8;fillColor=#ffe6cc;strokeColor=#d79b00;" parent="UUl44Q_bIR5ZF49A4Y3q-76" vertex="1">
          <mxGeometry x="350" y="70" width="40" height="40" as="geometry" />
        </mxCell>
        <mxCell id="UUl44Q_bIR5ZF49A4Y3q-152" value="Retorna mensagem de sucesso" style="rounded=1;whiteSpace=wrap;html=1;fontSize=8;fillColor=#f5f5f5;strokeColor=#666666;fontColor=#333333;" parent="UUl44Q_bIR5ZF49A4Y3q-76" vertex="1">
          <mxGeometry x="460" y="8.019999999999982" width="70" height="40" as="geometry" />
        </mxCell>
        <mxCell id="UUl44Q_bIR5ZF49A4Y3q-153" value="Retorna mensagem de erro" style="rounded=1;whiteSpace=wrap;html=1;fontSize=8;fillColor=#f5f5f5;strokeColor=#666666;fontColor=#333333;" parent="UUl44Q_bIR5ZF49A4Y3q-76" vertex="1">
          <mxGeometry x="460" y="70" width="70" height="40" as="geometry" />
        </mxCell>
        <mxCell id="UUl44Q_bIR5ZF49A4Y3q-228" value="" style="edgeStyle=orthogonalEdgeStyle;rounded=0;orthogonalLoop=1;jettySize=auto;html=1;endSize=4;" parent="UUl44Q_bIR5ZF49A4Y3q-76" source="UUl44Q_bIR5ZF49A4Y3q-156" target="UUl44Q_bIR5ZF49A4Y3q-147" edge="1">
          <mxGeometry relative="1" as="geometry" />
        </mxCell>
        <mxCell id="UUl44Q_bIR5ZF49A4Y3q-156" value="Verifica a recorrência do pagamento" style="rounded=1;whiteSpace=wrap;html=1;fontSize=8;fillColor=#f5f5f5;strokeColor=#666666;fontColor=#333333;" parent="UUl44Q_bIR5ZF49A4Y3q-76" vertex="1">
          <mxGeometry x="120" y="70" width="70" height="40" as="geometry" />
        </mxCell>
        <mxCell id="Qf3NjimF2T0bbUfOxqCO-13" value="" style="edgeStyle=orthogonalEdgeStyle;rounded=0;orthogonalLoop=1;jettySize=auto;html=1;endSize=4;" edge="1" parent="UUl44Q_bIR5ZF49A4Y3q-76" source="UUl44Q_bIR5ZF49A4Y3q-158" target="UUl44Q_bIR5ZF49A4Y3q-163">
          <mxGeometry relative="1" as="geometry" />
        </mxCell>
        <mxCell id="UUl44Q_bIR5ZF49A4Y3q-158" value="Aguarda próxima&lt;div&gt;data de pagamento&lt;/div&gt;" style="verticalLabelPosition=bottom;verticalAlign=top;html=1;shape=mxgraph.flowchart.on-page_reference;fillColor=#fff2cc;strokeColor=#d6b656;fontSize=8;" parent="UUl44Q_bIR5ZF49A4Y3q-76" vertex="1">
          <mxGeometry x="580" y="80" width="20" height="20" as="geometry" />
        </mxCell>
        <mxCell id="UUl44Q_bIR5ZF49A4Y3q-161" style="edgeStyle=orthogonalEdgeStyle;rounded=0;orthogonalLoop=1;jettySize=auto;html=1;entryX=0;entryY=0.5;entryDx=0;entryDy=0;endSize=4;" parent="UUl44Q_bIR5ZF49A4Y3q-76" source="UUl44Q_bIR5ZF49A4Y3q-166" target="UUl44Q_bIR5ZF49A4Y3q-167" edge="1">
          <mxGeometry relative="1" as="geometry">
            <Array as="points">
              <mxPoint x="755" y="28.000000000000004" />
            </Array>
          </mxGeometry>
        </mxCell>
        <mxCell id="UUl44Q_bIR5ZF49A4Y3q-162" value="" style="edgeStyle=orthogonalEdgeStyle;rounded=0;orthogonalLoop=1;jettySize=auto;html=1;entryX=0;entryY=0.5;entryDx=0;entryDy=0;endSize=4;" parent="UUl44Q_bIR5ZF49A4Y3q-76" source="UUl44Q_bIR5ZF49A4Y3q-166" target="UUl44Q_bIR5ZF49A4Y3q-169" edge="1">
          <mxGeometry relative="1" as="geometry">
            <mxPoint x="845" y="90" as="targetPoint" />
          </mxGeometry>
        </mxCell>
        <mxCell id="Qf3NjimF2T0bbUfOxqCO-14" value="" style="edgeStyle=orthogonalEdgeStyle;rounded=0;orthogonalLoop=1;jettySize=auto;html=1;endSize=4;" edge="1" parent="UUl44Q_bIR5ZF49A4Y3q-76" source="UUl44Q_bIR5ZF49A4Y3q-163" target="UUl44Q_bIR5ZF49A4Y3q-166">
          <mxGeometry relative="1" as="geometry" />
        </mxCell>
        <mxCell id="UUl44Q_bIR5ZF49A4Y3q-163" value="Envia dados salvos para o Gateway de Pagamento" style="rounded=1;whiteSpace=wrap;html=1;fontSize=8;fillColor=#f5f5f5;strokeColor=#666666;fontColor=#333333;" parent="UUl44Q_bIR5ZF49A4Y3q-76" vertex="1">
          <mxGeometry x="635" y="70" width="70" height="40" as="geometry" />
        </mxCell>
        <mxCell id="UUl44Q_bIR5ZF49A4Y3q-164" value="&lt;font style=&quot;font-size: 8px;&quot;&gt;SIM&lt;/font&gt;" style="edgeLabel;html=1;align=center;verticalAlign=middle;resizable=0;points=[];" parent="UUl44Q_bIR5ZF49A4Y3q-76" vertex="1" connectable="0">
          <mxGeometry x="784.7420380058832" y="28.016438364093236" as="geometry">
            <mxPoint x="2" y="-2" as="offset" />
          </mxGeometry>
        </mxCell>
        <mxCell id="UUl44Q_bIR5ZF49A4Y3q-165" value="&lt;font&gt;NÃO&lt;/font&gt;" style="edgeLabel;html=1;align=center;verticalAlign=middle;resizable=0;points=[];fontSize=8;" parent="UUl44Q_bIR5ZF49A4Y3q-76" vertex="1" connectable="0">
          <mxGeometry x="793" y="90" as="geometry" />
        </mxCell>
        <mxCell id="UUl44Q_bIR5ZF49A4Y3q-166" value="Pagamento confirmado?" style="rhombus;whiteSpace=wrap;html=1;labelPosition=center;verticalLabelPosition=bottom;align=center;verticalAlign=top;fontSize=8;fillColor=#ffe6cc;strokeColor=#d79b00;" parent="UUl44Q_bIR5ZF49A4Y3q-76" vertex="1">
          <mxGeometry x="735" y="70" width="40" height="40" as="geometry" />
        </mxCell>
        <mxCell id="Qf3NjimF2T0bbUfOxqCO-146" value="" style="edgeStyle=orthogonalEdgeStyle;rounded=0;orthogonalLoop=1;jettySize=auto;html=1;endSize=4;" edge="1" parent="UUl44Q_bIR5ZF49A4Y3q-76" source="UUl44Q_bIR5ZF49A4Y3q-167" target="Qf3NjimF2T0bbUfOxqCO-145">
          <mxGeometry relative="1" as="geometry" />
        </mxCell>
        <mxCell id="UUl44Q_bIR5ZF49A4Y3q-167" value="Envia E-mail de pagamento confirmado" style="rounded=1;whiteSpace=wrap;html=1;fontSize=8;fillColor=#f5f5f5;strokeColor=#666666;fontColor=#333333;" parent="UUl44Q_bIR5ZF49A4Y3q-76" vertex="1">
          <mxGeometry x="830" y="8.019999999999982" width="70" height="40" as="geometry" />
        </mxCell>
        <mxCell id="UUl44Q_bIR5ZF49A4Y3q-253" value="" style="edgeStyle=orthogonalEdgeStyle;rounded=0;orthogonalLoop=1;jettySize=auto;html=1;endSize=4;" parent="UUl44Q_bIR5ZF49A4Y3q-76" source="UUl44Q_bIR5ZF49A4Y3q-169" target="UUl44Q_bIR5ZF49A4Y3q-170" edge="1">
          <mxGeometry relative="1" as="geometry" />
        </mxCell>
        <mxCell id="UUl44Q_bIR5ZF49A4Y3q-169" value="Gera link para confirmação ou edição de dados de pagamento" style="rounded=1;whiteSpace=wrap;html=1;fontSize=8;fillColor=#f5f5f5;strokeColor=#666666;fontColor=#333333;" parent="UUl44Q_bIR5ZF49A4Y3q-76" vertex="1">
          <mxGeometry x="830" y="70" width="70" height="40" as="geometry" />
        </mxCell>
        <mxCell id="Qf3NjimF2T0bbUfOxqCO-15" value="" style="edgeStyle=orthogonalEdgeStyle;rounded=0;orthogonalLoop=1;jettySize=auto;html=1;endSize=4;" edge="1" parent="UUl44Q_bIR5ZF49A4Y3q-76" source="UUl44Q_bIR5ZF49A4Y3q-170" target="UUl44Q_bIR5ZF49A4Y3q-248">
          <mxGeometry relative="1" as="geometry" />
        </mxCell>
        <mxCell id="UUl44Q_bIR5ZF49A4Y3q-170" value="Envia E-mail de problema com pagamento" style="rounded=1;whiteSpace=wrap;html=1;fontSize=8;fillColor=#f5f5f5;strokeColor=#666666;fontColor=#333333;" parent="UUl44Q_bIR5ZF49A4Y3q-76" vertex="1">
          <mxGeometry x="930" y="70" width="70" height="40" as="geometry" />
        </mxCell>
        <mxCell id="UUl44Q_bIR5ZF49A4Y3q-244" style="edgeStyle=orthogonalEdgeStyle;rounded=0;orthogonalLoop=1;jettySize=auto;html=1;entryX=0;entryY=0.5;entryDx=0;entryDy=0;endSize=4;" parent="UUl44Q_bIR5ZF49A4Y3q-76" source="UUl44Q_bIR5ZF49A4Y3q-248" target="UUl44Q_bIR5ZF49A4Y3q-249" edge="1">
          <mxGeometry relative="1" as="geometry">
            <Array as="points">
              <mxPoint x="1060" y="28" />
            </Array>
          </mxGeometry>
        </mxCell>
        <mxCell id="UUl44Q_bIR5ZF49A4Y3q-245" value="" style="edgeStyle=orthogonalEdgeStyle;rounded=0;orthogonalLoop=1;jettySize=auto;html=1;endSize=4;" parent="UUl44Q_bIR5ZF49A4Y3q-76" source="UUl44Q_bIR5ZF49A4Y3q-248" edge="1">
          <mxGeometry relative="1" as="geometry">
            <mxPoint x="1150" y="90" as="targetPoint" />
          </mxGeometry>
        </mxCell>
        <mxCell id="UUl44Q_bIR5ZF49A4Y3q-246" value="&lt;font style=&quot;font-size: 8px;&quot;&gt;SIM&lt;/font&gt;" style="edgeLabel;html=1;align=center;verticalAlign=middle;resizable=0;points=[];" parent="UUl44Q_bIR5ZF49A4Y3q-76" vertex="1" connectable="0">
          <mxGeometry x="1089.7420380058832" y="28.016438364093233" as="geometry">
            <mxPoint x="2" y="-2" as="offset" />
          </mxGeometry>
        </mxCell>
        <mxCell id="UUl44Q_bIR5ZF49A4Y3q-247" value="&lt;font&gt;NÃO&lt;/font&gt;" style="edgeLabel;html=1;align=center;verticalAlign=middle;resizable=0;points=[];fontSize=8;" parent="UUl44Q_bIR5ZF49A4Y3q-76" vertex="1" connectable="0">
          <mxGeometry x="1098" y="90" as="geometry" />
        </mxCell>
        <mxCell id="UUl44Q_bIR5ZF49A4Y3q-248" value="Erro persiste?" style="rhombus;whiteSpace=wrap;html=1;labelPosition=center;verticalLabelPosition=bottom;align=center;verticalAlign=top;fontSize=8;fillColor=#ffe6cc;strokeColor=#d79b00;" parent="UUl44Q_bIR5ZF49A4Y3q-76" vertex="1">
          <mxGeometry x="1040" y="70" width="40" height="40" as="geometry" />
        </mxCell>
        <mxCell id="UUl44Q_bIR5ZF49A4Y3q-252" value="" style="edgeStyle=orthogonalEdgeStyle;rounded=0;orthogonalLoop=1;jettySize=auto;html=1;endSize=4;" parent="UUl44Q_bIR5ZF49A4Y3q-76" source="UUl44Q_bIR5ZF49A4Y3q-249" target="UUl44Q_bIR5ZF49A4Y3q-251" edge="1">
          <mxGeometry relative="1" as="geometry" />
        </mxCell>
        <mxCell id="UUl44Q_bIR5ZF49A4Y3q-249" value="Remove acesso da plataforma" style="rounded=1;whiteSpace=wrap;html=1;fontSize=8;fillColor=#f5f5f5;strokeColor=#666666;fontColor=#333333;" parent="UUl44Q_bIR5ZF49A4Y3q-76" vertex="1">
          <mxGeometry x="1150" y="8.019999999999982" width="70" height="40" as="geometry" />
        </mxCell>
        <mxCell id="Qf3NjimF2T0bbUfOxqCO-148" value="" style="edgeStyle=orthogonalEdgeStyle;rounded=0;orthogonalLoop=1;jettySize=auto;html=1;endSize=4;" edge="1" parent="UUl44Q_bIR5ZF49A4Y3q-76" source="UUl44Q_bIR5ZF49A4Y3q-250" target="Qf3NjimF2T0bbUfOxqCO-147">
          <mxGeometry relative="1" as="geometry" />
        </mxCell>
        <mxCell id="UUl44Q_bIR5ZF49A4Y3q-250" value="Envia E-mail de pagamento confirmado" style="rounded=1;whiteSpace=wrap;html=1;fontSize=8;fillColor=#f5f5f5;strokeColor=#666666;fontColor=#333333;" parent="UUl44Q_bIR5ZF49A4Y3q-76" vertex="1">
          <mxGeometry x="1150" y="70" width="70" height="40" as="geometry" />
        </mxCell>
        <mxCell id="Qf3NjimF2T0bbUfOxqCO-149" value="" style="edgeStyle=orthogonalEdgeStyle;rounded=0;orthogonalLoop=1;jettySize=auto;html=1;endSize=4;" edge="1" parent="UUl44Q_bIR5ZF49A4Y3q-76" source="UUl44Q_bIR5ZF49A4Y3q-251" target="Qf3NjimF2T0bbUfOxqCO-147">
          <mxGeometry relative="1" as="geometry" />
        </mxCell>
        <mxCell id="UUl44Q_bIR5ZF49A4Y3q-251" value="Envia E-mail de acesso bloqueado" style="rounded=1;whiteSpace=wrap;html=1;fontSize=8;fillColor=#f5f5f5;strokeColor=#666666;fontColor=#333333;" parent="UUl44Q_bIR5ZF49A4Y3q-76" vertex="1">
          <mxGeometry x="1240" y="8.019999999999982" width="70" height="40" as="geometry" />
        </mxCell>
        <mxCell id="Qf3NjimF2T0bbUfOxqCO-10" value="" style="edgeStyle=orthogonalEdgeStyle;rounded=0;orthogonalLoop=1;jettySize=auto;html=1;endSize=4;" edge="1" parent="UUl44Q_bIR5ZF49A4Y3q-76" source="UUl44Q_bIR5ZF49A4Y3q-254" target="UUl44Q_bIR5ZF49A4Y3q-255">
          <mxGeometry relative="1" as="geometry" />
        </mxCell>
        <mxCell id="UUl44Q_bIR5ZF49A4Y3q-254" value="Recebe requisição&lt;div&gt;de cancelamento&lt;/div&gt;&lt;div&gt;de plano&lt;/div&gt;" style="verticalLabelPosition=bottom;verticalAlign=top;html=1;shape=mxgraph.flowchart.on-page_reference;fillColor=#fff2cc;strokeColor=#d6b656;fontSize=8;" parent="UUl44Q_bIR5ZF49A4Y3q-76" vertex="1">
          <mxGeometry x="1410" y="80" width="20" height="20" as="geometry" />
        </mxCell>
        <mxCell id="Qf3NjimF2T0bbUfOxqCO-11" value="" style="edgeStyle=orthogonalEdgeStyle;rounded=0;orthogonalLoop=1;jettySize=auto;html=1;endSize=4;" edge="1" parent="UUl44Q_bIR5ZF49A4Y3q-76" source="UUl44Q_bIR5ZF49A4Y3q-255" target="UUl44Q_bIR5ZF49A4Y3q-256">
          <mxGeometry relative="1" as="geometry" />
        </mxCell>
        <mxCell id="UUl44Q_bIR5ZF49A4Y3q-255" value="Envia requisição para o Gateway de Pagamento" style="rounded=1;whiteSpace=wrap;html=1;fontSize=8;fillColor=#f5f5f5;strokeColor=#666666;fontColor=#333333;" parent="UUl44Q_bIR5ZF49A4Y3q-76" vertex="1">
          <mxGeometry x="1460" y="70" width="70" height="40" as="geometry" />
        </mxCell>
        <mxCell id="Qf3NjimF2T0bbUfOxqCO-12" value="" style="edgeStyle=orthogonalEdgeStyle;rounded=0;orthogonalLoop=1;jettySize=auto;html=1;endSize=4;" edge="1" parent="UUl44Q_bIR5ZF49A4Y3q-76" source="UUl44Q_bIR5ZF49A4Y3q-256" target="UUl44Q_bIR5ZF49A4Y3q-257">
          <mxGeometry relative="1" as="geometry" />
        </mxCell>
        <mxCell id="UUl44Q_bIR5ZF49A4Y3q-256" value="Remove cobranças futuras" style="rounded=1;whiteSpace=wrap;html=1;fontSize=8;fillColor=#f5f5f5;strokeColor=#666666;fontColor=#333333;" parent="UUl44Q_bIR5ZF49A4Y3q-76" vertex="1">
          <mxGeometry x="1564" y="70" width="70" height="40" as="geometry" />
        </mxCell>
        <mxCell id="Qf3NjimF2T0bbUfOxqCO-151" value="" style="edgeStyle=orthogonalEdgeStyle;rounded=0;orthogonalLoop=1;jettySize=auto;html=1;endSize=4;" edge="1" parent="UUl44Q_bIR5ZF49A4Y3q-76" source="UUl44Q_bIR5ZF49A4Y3q-257" target="Qf3NjimF2T0bbUfOxqCO-150">
          <mxGeometry relative="1" as="geometry" />
        </mxCell>
        <mxCell id="UUl44Q_bIR5ZF49A4Y3q-257" value="Envia E-mail de confirmação de cancelamento" style="rounded=1;whiteSpace=wrap;html=1;fontSize=8;fillColor=#f5f5f5;strokeColor=#666666;fontColor=#333333;" parent="UUl44Q_bIR5ZF49A4Y3q-76" vertex="1">
          <mxGeometry x="1564" y="8.020000000000003" width="70" height="40" as="geometry" />
        </mxCell>
        <mxCell id="Qf3NjimF2T0bbUfOxqCO-145" value="" style="verticalLabelPosition=bottom;verticalAlign=top;html=1;shape=mxgraph.flowchart.on-page_reference;fillColor=#f8cecc;strokeColor=#b85450;fontSize=8;" vertex="1" parent="UUl44Q_bIR5ZF49A4Y3q-76">
          <mxGeometry x="955" y="18.019999999999982" width="20" height="20" as="geometry" />
        </mxCell>
        <mxCell id="Qf3NjimF2T0bbUfOxqCO-147" value="" style="verticalLabelPosition=bottom;verticalAlign=top;html=1;shape=mxgraph.flowchart.on-page_reference;fillColor=#f8cecc;strokeColor=#b85450;fontSize=8;" vertex="1" parent="UUl44Q_bIR5ZF49A4Y3q-76">
          <mxGeometry x="1265" y="80" width="20" height="20" as="geometry" />
        </mxCell>
        <mxCell id="Qf3NjimF2T0bbUfOxqCO-150" value="" style="verticalLabelPosition=bottom;verticalAlign=top;html=1;shape=mxgraph.flowchart.on-page_reference;fillColor=#f8cecc;strokeColor=#b85450;fontSize=8;" vertex="1" parent="UUl44Q_bIR5ZF49A4Y3q-76">
          <mxGeometry x="1680" y="18.020000000000003" width="20" height="20" as="geometry" />
        </mxCell>
        <mxCell id="Qf3NjimF2T0bbUfOxqCO-251" style="edgeStyle=orthogonalEdgeStyle;rounded=0;orthogonalLoop=1;jettySize=auto;html=1;endSize=4;dashed=1;" edge="1" parent="UUl44Q_bIR5ZF49A4Y3q-1" source="UUl44Q_bIR5ZF49A4Y3q-117" target="UUl44Q_bIR5ZF49A4Y3q-36">
          <mxGeometry relative="1" as="geometry">
            <Array as="points">
              <mxPoint x="160" y="196" />
              <mxPoint x="110" y="196" />
            </Array>
          </mxGeometry>
        </mxCell>
        <mxCell id="Qf3NjimF2T0bbUfOxqCO-252" style="edgeStyle=orthogonalEdgeStyle;rounded=0;orthogonalLoop=1;jettySize=auto;html=1;entryX=0.5;entryY=1;entryDx=0;entryDy=0;entryPerimeter=0;endSize=4;dashed=1;" edge="1" parent="UUl44Q_bIR5ZF49A4Y3q-1" source="UUl44Q_bIR5ZF49A4Y3q-143" target="UUl44Q_bIR5ZF49A4Y3q-119">
          <mxGeometry relative="1" as="geometry">
            <Array as="points">
              <mxPoint x="515" y="190" />
              <mxPoint x="247" y="190" />
            </Array>
          </mxGeometry>
        </mxCell>
        <mxCell id="Qf3NjimF2T0bbUfOxqCO-253" style="edgeStyle=orthogonalEdgeStyle;rounded=0;orthogonalLoop=1;jettySize=auto;html=1;entryX=0.5;entryY=0;entryDx=0;entryDy=0;entryPerimeter=0;dashed=1;endSize=4;" edge="1" parent="UUl44Q_bIR5ZF49A4Y3q-1" source="UUl44Q_bIR5ZF49A4Y3q-120" target="UUl44Q_bIR5ZF49A4Y3q-58">
          <mxGeometry relative="1" as="geometry">
            <Array as="points">
              <mxPoint x="532" y="130" />
              <mxPoint x="70" y="130" />
              <mxPoint x="70" y="650" />
              <mxPoint x="100" y="650" />
            </Array>
          </mxGeometry>
        </mxCell>
        <mxCell id="Qf3NjimF2T0bbUfOxqCO-254" style="edgeStyle=orthogonalEdgeStyle;rounded=0;orthogonalLoop=1;jettySize=auto;html=1;entryX=0.5;entryY=1;entryDx=0;entryDy=0;entryPerimeter=0;endSize=4;dashed=1;" edge="1" parent="UUl44Q_bIR5ZF49A4Y3q-1" source="UUl44Q_bIR5ZF49A4Y3q-152" target="UUl44Q_bIR5ZF49A4Y3q-146">
          <mxGeometry relative="1" as="geometry">
            <Array as="points">
              <mxPoint x="620" y="618" />
            </Array>
          </mxGeometry>
        </mxCell>
        <mxCell id="Qf3NjimF2T0bbUfOxqCO-257" style="edgeStyle=orthogonalEdgeStyle;rounded=0;orthogonalLoop=1;jettySize=auto;html=1;endSize=4;dashed=1;" edge="1" parent="UUl44Q_bIR5ZF49A4Y3q-1" source="UUl44Q_bIR5ZF49A4Y3q-123" target="UUl44Q_bIR5ZF49A4Y3q-36">
          <mxGeometry relative="1" as="geometry">
            <Array as="points">
              <mxPoint x="968" y="150" />
              <mxPoint x="110" y="150" />
            </Array>
          </mxGeometry>
        </mxCell>
        <mxCell id="Qf3NjimF2T0bbUfOxqCO-262" style="edgeStyle=orthogonalEdgeStyle;rounded=0;orthogonalLoop=1;jettySize=auto;html=1;exitX=0.5;exitY=0;exitDx=0;exitDy=0;entryX=0.5;entryY=0;entryDx=0;entryDy=0;entryPerimeter=0;endSize=4;dashed=1;" edge="1" parent="UUl44Q_bIR5ZF49A4Y3q-1" source="Qf3NjimF2T0bbUfOxqCO-260" target="Qf3NjimF2T0bbUfOxqCO-171">
          <mxGeometry relative="1" as="geometry">
            <mxPoint x="1147.48" y="80" as="sourcePoint" />
            <mxPoint x="642.48" y="310.99" as="targetPoint" />
            <Array as="points">
              <mxPoint x="1205" y="60" />
              <mxPoint x="1147" y="60" />
              <mxPoint x="1147" y="180" />
              <mxPoint x="700" y="180" />
            </Array>
          </mxGeometry>
        </mxCell>
        <mxCell id="Qf3NjimF2T0bbUfOxqCO-264" style="edgeStyle=orthogonalEdgeStyle;rounded=0;orthogonalLoop=1;jettySize=auto;html=1;entryX=0.5;entryY=1;entryDx=0;entryDy=0;endSize=4;dashed=1;" edge="1" parent="UUl44Q_bIR5ZF49A4Y3q-1" source="Qf3NjimF2T0bbUfOxqCO-180" target="Qf3NjimF2T0bbUfOxqCO-260">
          <mxGeometry relative="1" as="geometry" />
        </mxCell>
        <mxCell id="Qf3NjimF2T0bbUfOxqCO-270" style="edgeStyle=orthogonalEdgeStyle;rounded=0;orthogonalLoop=1;jettySize=auto;html=1;entryX=0.5;entryY=0;entryDx=0;entryDy=0;exitX=0.5;exitY=1;exitDx=0;exitDy=0;endSize=4;dashed=1;" edge="1" parent="UUl44Q_bIR5ZF49A4Y3q-1" source="UUl44Q_bIR5ZF49A4Y3q-153" target="UUl44Q_bIR5ZF49A4Y3q-120">
          <mxGeometry relative="1" as="geometry">
            <mxPoint x="580" y="370" as="targetPoint" />
            <Array as="points">
              <mxPoint x="515" y="740" />
              <mxPoint x="50" y="740" />
              <mxPoint x="50" y="40" />
              <mxPoint x="532" y="40" />
            </Array>
          </mxGeometry>
        </mxCell>
        <mxCell id="Qf3NjimF2T0bbUfOxqCO-272" style="edgeStyle=orthogonalEdgeStyle;rounded=0;orthogonalLoop=1;jettySize=auto;html=1;entryX=0;entryY=0.5;entryDx=0;entryDy=0;entryPerimeter=0;endSize=4;dashed=1;exitX=0.5;exitY=1;exitDx=0;exitDy=0;" edge="1" parent="UUl44Q_bIR5ZF49A4Y3q-1" source="Qf3NjimF2T0bbUfOxqCO-265" target="Qf3NjimF2T0bbUfOxqCO-171">
          <mxGeometry relative="1" as="geometry">
            <mxPoint x="1099.9999999999998" y="370" as="targetPoint" />
            <Array as="points">
              <mxPoint x="1085" y="930" />
              <mxPoint x="1020" y="930" />
              <mxPoint x="1020" y="740" />
              <mxPoint x="560" y="740" />
              <mxPoint x="560" y="650" />
              <mxPoint x="630" y="650" />
              <mxPoint x="630" y="341" />
            </Array>
          </mxGeometry>
        </mxCell>
        <mxCell id="Qf3NjimF2T0bbUfOxqCO-273" style="edgeStyle=orthogonalEdgeStyle;rounded=0;orthogonalLoop=1;jettySize=auto;html=1;entryX=0.5;entryY=0;entryDx=0;entryDy=0;endSize=4;dashed=1;" edge="1" parent="UUl44Q_bIR5ZF49A4Y3q-1" source="Qf3NjimF2T0bbUfOxqCO-180" target="Qf3NjimF2T0bbUfOxqCO-265">
          <mxGeometry relative="1" as="geometry">
            <mxPoint x="1109.9999999999998" y="820.9090909090909" as="targetPoint" />
            <Array as="points">
              <mxPoint x="1350" y="341" />
              <mxPoint x="1350" y="750" />
              <mxPoint x="1085" y="750" />
            </Array>
          </mxGeometry>
        </mxCell>
        <mxCell id="Qf3NjimF2T0bbUfOxqCO-274" style="edgeStyle=orthogonalEdgeStyle;rounded=0;orthogonalLoop=1;jettySize=auto;html=1;entryX=0.5;entryY=1;entryDx=0;entryDy=0;entryPerimeter=0;endSize=4;dashed=1;" edge="1" parent="UUl44Q_bIR5ZF49A4Y3q-1" source="Qf3NjimF2T0bbUfOxqCO-158" target="Qf3NjimF2T0bbUfOxqCO-236">
          <mxGeometry relative="1" as="geometry">
            <mxPoint x="1270" y="446.79999999999995" as="targetPoint" />
            <Array as="points">
              <mxPoint x="1570" y="850" />
              <mxPoint x="1570" y="750" />
              <mxPoint x="1380" y="750" />
              <mxPoint x="1380" y="560" />
              <mxPoint x="760" y="560" />
            </Array>
          </mxGeometry>
        </mxCell>
        <mxCell id="Qf3NjimF2T0bbUfOxqCO-275" style="edgeStyle=orthogonalEdgeStyle;rounded=0;orthogonalLoop=1;jettySize=auto;html=1;entryX=0.5;entryY=1;entryDx=0;entryDy=0;entryPerimeter=0;endSize=4;dashed=1;" edge="1" parent="UUl44Q_bIR5ZF49A4Y3q-1" source="UUl44Q_bIR5ZF49A4Y3q-202" target="UUl44Q_bIR5ZF49A4Y3q-78">
          <mxGeometry relative="1" as="geometry">
            <Array as="points">
              <mxPoint x="930" y="860" />
              <mxPoint x="930" y="760" />
              <mxPoint x="230" y="760" />
              <mxPoint x="230" y="560" />
              <mxPoint x="120" y="560" />
            </Array>
          </mxGeometry>
        </mxCell>
        <mxCell id="Qf3NjimF2T0bbUfOxqCO-276" style="edgeStyle=orthogonalEdgeStyle;rounded=0;orthogonalLoop=1;jettySize=auto;html=1;entryX=1;entryY=0.5;entryDx=0;entryDy=0;entryPerimeter=0;exitX=0.5;exitY=1;exitDx=0;exitDy=0;endSize=4;dashed=1;" edge="1" parent="UUl44Q_bIR5ZF49A4Y3q-1" source="Qf3NjimF2T0bbUfOxqCO-211" target="Qf3NjimF2T0bbUfOxqCO-199">
          <mxGeometry relative="1" as="geometry">
            <mxPoint x="240" y="620" as="sourcePoint" />
            <Array as="points">
              <mxPoint x="490" y="570" />
              <mxPoint x="1030" y="570" />
              <mxPoint x="1030" y="920" />
            </Array>
          </mxGeometry>
        </mxCell>
        <mxCell id="Qf3NjimF2T0bbUfOxqCO-277" style="edgeStyle=orthogonalEdgeStyle;rounded=0;orthogonalLoop=1;jettySize=auto;html=1;dashed=1;endSize=4;" edge="1" parent="UUl44Q_bIR5ZF49A4Y3q-1" source="UUl44Q_bIR5ZF49A4Y3q-124" target="Qf3NjimF2T0bbUfOxqCO-209">
          <mxGeometry relative="1" as="geometry">
            <Array as="points">
              <mxPoint x="1078" y="130" />
              <mxPoint x="840" y="130" />
              <mxPoint x="840" y="420" />
              <mxPoint x="290" y="420" />
            </Array>
          </mxGeometry>
        </mxCell>
        <mxCell id="UUl44Q_bIR5ZF49A4Y3q-96" value="Paciente (Usuário)" style="swimlane;html=1;startSize=20;horizontal=0;" parent="UUl44Q_bIR5ZF49A4Y3q-1" vertex="1">
          <mxGeometry x="20" y="770" width="1750" height="180" as="geometry" />
        </mxCell>
        <mxCell id="Qf3NjimF2T0bbUfOxqCO-229" style="edgeStyle=orthogonalEdgeStyle;rounded=0;orthogonalLoop=1;jettySize=auto;html=1;entryX=0;entryY=0.5;entryDx=0;entryDy=0;entryPerimeter=0;endSize=4;" edge="1" parent="UUl44Q_bIR5ZF49A4Y3q-96" source="UUl44Q_bIR5ZF49A4Y3q-178" target="Qf3NjimF2T0bbUfOxqCO-228">
          <mxGeometry relative="1" as="geometry">
            <Array as="points">
              <mxPoint x="324" y="29" />
            </Array>
          </mxGeometry>
        </mxCell>
        <mxCell id="Qf3NjimF2T0bbUfOxqCO-7" value="" style="edgeStyle=orthogonalEdgeStyle;rounded=0;orthogonalLoop=1;jettySize=auto;html=1;endSize=4;" edge="1" parent="UUl44Q_bIR5ZF49A4Y3q-96" source="UUl44Q_bIR5ZF49A4Y3q-200" target="UUl44Q_bIR5ZF49A4Y3q-197">
          <mxGeometry relative="1" as="geometry" />
        </mxCell>
        <mxCell id="Qf3NjimF2T0bbUfOxqCO-8" style="edgeStyle=orthogonalEdgeStyle;rounded=0;orthogonalLoop=1;jettySize=auto;html=1;entryX=0;entryY=0.5;entryDx=0;entryDy=0;endSize=4;" edge="1" parent="UUl44Q_bIR5ZF49A4Y3q-96" source="UUl44Q_bIR5ZF49A4Y3q-200" target="UUl44Q_bIR5ZF49A4Y3q-201">
          <mxGeometry relative="1" as="geometry">
            <Array as="points">
              <mxPoint x="640" y="29" />
            </Array>
          </mxGeometry>
        </mxCell>
        <mxCell id="FW-obU94I4NySiRGdBar-1" value="" style="edgeStyle=orthogonalEdgeStyle;rounded=0;orthogonalLoop=1;jettySize=auto;html=1;endSize=4;" parent="UUl44Q_bIR5ZF49A4Y3q-96" source="UUl44Q_bIR5ZF49A4Y3q-98" target="UUl44Q_bIR5ZF49A4Y3q-171" edge="1">
          <mxGeometry relative="1" as="geometry" />
        </mxCell>
        <mxCell id="UUl44Q_bIR5ZF49A4Y3q-98" value="Aguarda E-mail&lt;div&gt;de acesso para&lt;/div&gt;&lt;div&gt;plataforma&lt;/div&gt;" style="verticalLabelPosition=bottom;verticalAlign=top;html=1;shape=mxgraph.flowchart.on-page_reference;fillColor=#fff2cc;strokeColor=#d6b656;fontSize=8;" parent="UUl44Q_bIR5ZF49A4Y3q-96" vertex="1">
          <mxGeometry x="40" y="80" width="20" height="20" as="geometry" />
        </mxCell>
        <mxCell id="Qf3NjimF2T0bbUfOxqCO-1" value="" style="edgeStyle=orthogonalEdgeStyle;rounded=0;orthogonalLoop=1;jettySize=auto;html=1;endSize=4;" edge="1" parent="UUl44Q_bIR5ZF49A4Y3q-96" source="UUl44Q_bIR5ZF49A4Y3q-171" target="UUl44Q_bIR5ZF49A4Y3q-172">
          <mxGeometry relative="1" as="geometry" />
        </mxCell>
        <mxCell id="UUl44Q_bIR5ZF49A4Y3q-171" value="Acessa a plataforma" style="rounded=1;whiteSpace=wrap;html=1;fontSize=8;fillColor=#f5f5f5;strokeColor=#666666;fontColor=#333333;" parent="UUl44Q_bIR5ZF49A4Y3q-96" vertex="1">
          <mxGeometry x="90" y="70" width="70" height="40" as="geometry" />
        </mxCell>
        <mxCell id="Qf3NjimF2T0bbUfOxqCO-2" value="" style="edgeStyle=orthogonalEdgeStyle;rounded=0;orthogonalLoop=1;jettySize=auto;html=1;endSize=4;" edge="1" parent="UUl44Q_bIR5ZF49A4Y3q-96" source="UUl44Q_bIR5ZF49A4Y3q-172" target="UUl44Q_bIR5ZF49A4Y3q-178">
          <mxGeometry relative="1" as="geometry" />
        </mxCell>
        <mxCell id="UUl44Q_bIR5ZF49A4Y3q-172" value="Verifica os dados cadastrados" style="rounded=1;whiteSpace=wrap;html=1;fontSize=8;fillColor=#f5f5f5;strokeColor=#666666;fontColor=#333333;" parent="UUl44Q_bIR5ZF49A4Y3q-96" vertex="1">
          <mxGeometry x="190" y="70" width="70" height="40" as="geometry" />
        </mxCell>
        <mxCell id="Qf3NjimF2T0bbUfOxqCO-6" value="" style="edgeStyle=orthogonalEdgeStyle;rounded=0;orthogonalLoop=1;jettySize=auto;html=1;endSize=4;" edge="1" parent="UUl44Q_bIR5ZF49A4Y3q-96" source="UUl44Q_bIR5ZF49A4Y3q-173" target="UUl44Q_bIR5ZF49A4Y3q-200">
          <mxGeometry relative="1" as="geometry" />
        </mxCell>
        <mxCell id="UUl44Q_bIR5ZF49A4Y3q-173" value="Acessa a dieta criada pelo Nutricionista" style="rounded=1;whiteSpace=wrap;html=1;fontSize=8;fillColor=#f5f5f5;strokeColor=#666666;fontColor=#333333;" parent="UUl44Q_bIR5ZF49A4Y3q-96" vertex="1">
          <mxGeometry x="500" y="69.99999999999999" width="70" height="40" as="geometry" />
        </mxCell>
        <mxCell id="UUl44Q_bIR5ZF49A4Y3q-176" value="&lt;font style=&quot;font-size: 8px;&quot;&gt;SIM&lt;/font&gt;" style="edgeLabel;html=1;align=center;verticalAlign=middle;resizable=0;points=[];" parent="UUl44Q_bIR5ZF49A4Y3q-96" vertex="1" connectable="0">
          <mxGeometry x="353.74203800588316" y="29.996438364093354" as="geometry">
            <mxPoint x="2" y="-2" as="offset" />
          </mxGeometry>
        </mxCell>
        <mxCell id="Qf3NjimF2T0bbUfOxqCO-3" value="" style="edgeStyle=orthogonalEdgeStyle;rounded=0;orthogonalLoop=1;jettySize=auto;html=1;endSize=4;" edge="1" parent="UUl44Q_bIR5ZF49A4Y3q-96" source="UUl44Q_bIR5ZF49A4Y3q-178" target="UUl44Q_bIR5ZF49A4Y3q-196">
          <mxGeometry relative="1" as="geometry" />
        </mxCell>
        <mxCell id="UUl44Q_bIR5ZF49A4Y3q-178" value="Dados corretos?" style="rhombus;whiteSpace=wrap;html=1;labelPosition=center;verticalLabelPosition=bottom;align=center;verticalAlign=top;fontSize=8;fillColor=#ffe6cc;strokeColor=#d79b00;" parent="UUl44Q_bIR5ZF49A4Y3q-96" vertex="1">
          <mxGeometry x="304" y="70.00000000000001" width="40" height="40" as="geometry" />
        </mxCell>
        <mxCell id="Qf3NjimF2T0bbUfOxqCO-285" value="" style="edgeStyle=orthogonalEdgeStyle;rounded=0;orthogonalLoop=1;jettySize=auto;html=1;entryX=0;entryY=0.5;entryDx=0;entryDy=0;endSize=4;" edge="1" parent="UUl44Q_bIR5ZF49A4Y3q-96" source="UUl44Q_bIR5ZF49A4Y3q-180" target="UUl44Q_bIR5ZF49A4Y3q-183">
          <mxGeometry relative="1" as="geometry" />
        </mxCell>
        <mxCell id="Qf3NjimF2T0bbUfOxqCO-286" style="edgeStyle=orthogonalEdgeStyle;rounded=0;orthogonalLoop=1;jettySize=auto;html=1;entryX=0;entryY=0.5;entryDx=0;entryDy=0;endSize=4;" edge="1" parent="UUl44Q_bIR5ZF49A4Y3q-96" source="UUl44Q_bIR5ZF49A4Y3q-180" target="UUl44Q_bIR5ZF49A4Y3q-182">
          <mxGeometry relative="1" as="geometry" />
        </mxCell>
        <mxCell id="Qf3NjimF2T0bbUfOxqCO-287" style="edgeStyle=orthogonalEdgeStyle;rounded=0;orthogonalLoop=1;jettySize=auto;html=1;entryX=0;entryY=0.5;entryDx=0;entryDy=0;endSize=4;" edge="1" parent="UUl44Q_bIR5ZF49A4Y3q-96" source="UUl44Q_bIR5ZF49A4Y3q-180" target="UUl44Q_bIR5ZF49A4Y3q-181">
          <mxGeometry relative="1" as="geometry" />
        </mxCell>
        <mxCell id="UUl44Q_bIR5ZF49A4Y3q-180" value="Acessa o App&lt;div&gt;diariamente&lt;/div&gt;" style="verticalLabelPosition=bottom;verticalAlign=top;html=1;shape=mxgraph.flowchart.on-page_reference;fillColor=#fff2cc;strokeColor=#d6b656;fontSize=8;" parent="UUl44Q_bIR5ZF49A4Y3q-96" vertex="1">
          <mxGeometry x="1270" y="70.99" width="20" height="20" as="geometry" />
        </mxCell>
        <mxCell id="Qf3NjimF2T0bbUfOxqCO-159" style="edgeStyle=orthogonalEdgeStyle;rounded=0;orthogonalLoop=1;jettySize=auto;html=1;entryX=0.5;entryY=0;entryDx=0;entryDy=0;endSize=4;" edge="1" parent="UUl44Q_bIR5ZF49A4Y3q-96" source="UUl44Q_bIR5ZF49A4Y3q-181" target="Qf3NjimF2T0bbUfOxqCO-158">
          <mxGeometry relative="1" as="geometry" />
        </mxCell>
        <mxCell id="UUl44Q_bIR5ZF49A4Y3q-181" value="Adiciona observações sobre restrições alimentares" style="rounded=1;whiteSpace=wrap;html=1;fontSize=8;fillColor=#f5f5f5;strokeColor=#666666;fontColor=#333333;" parent="UUl44Q_bIR5ZF49A4Y3q-96" vertex="1">
          <mxGeometry x="1350" y="9.010000000000007" width="70" height="40" as="geometry" />
        </mxCell>
        <mxCell id="Qf3NjimF2T0bbUfOxqCO-160" value="" style="edgeStyle=orthogonalEdgeStyle;rounded=0;orthogonalLoop=1;jettySize=auto;html=1;endSize=4;" edge="1" parent="UUl44Q_bIR5ZF49A4Y3q-96" source="UUl44Q_bIR5ZF49A4Y3q-182" target="Qf3NjimF2T0bbUfOxqCO-158">
          <mxGeometry relative="1" as="geometry" />
        </mxCell>
        <mxCell id="UUl44Q_bIR5ZF49A4Y3q-182" value="Informa sobre refeições" style="rounded=1;whiteSpace=wrap;html=1;fontSize=8;fillColor=#f5f5f5;strokeColor=#666666;fontColor=#333333;" parent="UUl44Q_bIR5ZF49A4Y3q-96" vertex="1">
          <mxGeometry x="1350" y="60.98999999999999" width="70" height="40" as="geometry" />
        </mxCell>
        <mxCell id="Qf3NjimF2T0bbUfOxqCO-161" style="edgeStyle=orthogonalEdgeStyle;rounded=0;orthogonalLoop=1;jettySize=auto;html=1;entryX=0.5;entryY=1;entryDx=0;entryDy=0;endSize=4;" edge="1" parent="UUl44Q_bIR5ZF49A4Y3q-96" source="UUl44Q_bIR5ZF49A4Y3q-183" target="Qf3NjimF2T0bbUfOxqCO-158">
          <mxGeometry relative="1" as="geometry" />
        </mxCell>
        <mxCell id="UUl44Q_bIR5ZF49A4Y3q-183" value="Indica problemas com a dieta prescrita" style="rounded=1;whiteSpace=wrap;html=1;fontSize=8;fillColor=#f5f5f5;strokeColor=#666666;fontColor=#333333;" parent="UUl44Q_bIR5ZF49A4Y3q-96" vertex="1">
          <mxGeometry x="1350" y="110.99" width="70" height="40" as="geometry" />
        </mxCell>
        <mxCell id="Qf3NjimF2T0bbUfOxqCO-5" style="edgeStyle=orthogonalEdgeStyle;rounded=0;orthogonalLoop=1;jettySize=auto;html=1;entryX=0.5;entryY=1;entryDx=0;entryDy=0;endSize=4;" edge="1" parent="UUl44Q_bIR5ZF49A4Y3q-96" source="UUl44Q_bIR5ZF49A4Y3q-196" target="UUl44Q_bIR5ZF49A4Y3q-172">
          <mxGeometry relative="1" as="geometry">
            <Array as="points">
              <mxPoint x="425" y="150" />
              <mxPoint x="225" y="150" />
            </Array>
          </mxGeometry>
        </mxCell>
        <mxCell id="UUl44Q_bIR5ZF49A4Y3q-196" value="Edita dados" style="rounded=1;whiteSpace=wrap;html=1;fontSize=8;fillColor=#f5f5f5;strokeColor=#666666;fontColor=#333333;" parent="UUl44Q_bIR5ZF49A4Y3q-96" vertex="1">
          <mxGeometry x="390" y="70.99000000000001" width="70" height="40" as="geometry" />
        </mxCell>
        <mxCell id="Qf3NjimF2T0bbUfOxqCO-9" value="" style="edgeStyle=orthogonalEdgeStyle;rounded=0;orthogonalLoop=1;jettySize=auto;html=1;endSize=4;" edge="1" parent="UUl44Q_bIR5ZF49A4Y3q-96" source="UUl44Q_bIR5ZF49A4Y3q-197" target="UUl44Q_bIR5ZF49A4Y3q-202">
          <mxGeometry relative="1" as="geometry" />
        </mxCell>
        <mxCell id="UUl44Q_bIR5ZF49A4Y3q-197" value="Cria outras restrições alimentares" style="rounded=1;whiteSpace=wrap;html=1;fontSize=8;fillColor=#f5f5f5;strokeColor=#666666;fontColor=#333333;" parent="UUl44Q_bIR5ZF49A4Y3q-96" vertex="1">
          <mxGeometry x="710" y="70.00000000000001" width="70" height="40" as="geometry" />
        </mxCell>
        <mxCell id="UUl44Q_bIR5ZF49A4Y3q-198" value="&lt;font style=&quot;font-size: 8px;&quot;&gt;SIM&lt;/font&gt;" style="edgeLabel;html=1;align=center;verticalAlign=middle;resizable=0;points=[];" parent="UUl44Q_bIR5ZF49A4Y3q-96" vertex="1" connectable="0">
          <mxGeometry x="669.7420380058832" y="28.016438364093357" as="geometry">
            <mxPoint x="2" y="-2" as="offset" />
          </mxGeometry>
        </mxCell>
        <mxCell id="UUl44Q_bIR5ZF49A4Y3q-199" value="&lt;font&gt;NÃO&lt;/font&gt;" style="edgeLabel;html=1;align=center;verticalAlign=middle;resizable=0;points=[];fontSize=8;" parent="UUl44Q_bIR5ZF49A4Y3q-96" vertex="1" connectable="0">
          <mxGeometry x="678" y="90.00000000000001" as="geometry" />
        </mxCell>
        <mxCell id="UUl44Q_bIR5ZF49A4Y3q-200" value="Dieta correta?" style="rhombus;whiteSpace=wrap;html=1;labelPosition=center;verticalLabelPosition=bottom;align=center;verticalAlign=top;fontSize=8;fillColor=#ffe6cc;strokeColor=#d79b00;" parent="UUl44Q_bIR5ZF49A4Y3q-96" vertex="1">
          <mxGeometry x="620" y="70.00000000000001" width="40" height="40" as="geometry" />
        </mxCell>
        <mxCell id="Qf3NjimF2T0bbUfOxqCO-198" value="" style="edgeStyle=orthogonalEdgeStyle;rounded=0;orthogonalLoop=1;jettySize=auto;html=1;endSize=4;entryX=0;entryY=0.5;entryDx=0;entryDy=0;" edge="1" parent="UUl44Q_bIR5ZF49A4Y3q-96" source="UUl44Q_bIR5ZF49A4Y3q-201" target="Qf3NjimF2T0bbUfOxqCO-265">
          <mxGeometry relative="1" as="geometry">
            <mxPoint x="835" y="29.00999999999999" as="targetPoint" />
            <Array as="points">
              <mxPoint x="960" y="30" />
              <mxPoint x="960" y="81" />
            </Array>
          </mxGeometry>
        </mxCell>
        <mxCell id="UUl44Q_bIR5ZF49A4Y3q-201" value="Confirma recebimento da dieta" style="rounded=1;whiteSpace=wrap;html=1;fontSize=8;fillColor=#f5f5f5;strokeColor=#666666;fontColor=#333333;" parent="UUl44Q_bIR5ZF49A4Y3q-96" vertex="1">
          <mxGeometry x="710" y="9.01" width="70" height="40" as="geometry" />
        </mxCell>
        <mxCell id="Qf3NjimF2T0bbUfOxqCO-202" value="" style="edgeStyle=orthogonalEdgeStyle;rounded=0;orthogonalLoop=1;jettySize=auto;html=1;endSize=4;" edge="1" parent="UUl44Q_bIR5ZF49A4Y3q-96" source="UUl44Q_bIR5ZF49A4Y3q-202" target="Qf3NjimF2T0bbUfOxqCO-199">
          <mxGeometry relative="1" as="geometry" />
        </mxCell>
        <mxCell id="UUl44Q_bIR5ZF49A4Y3q-202" value="Envia requisição de alteração de dieta" style="rounded=1;whiteSpace=wrap;html=1;fontSize=8;fillColor=#f5f5f5;strokeColor=#666666;fontColor=#333333;" parent="UUl44Q_bIR5ZF49A4Y3q-96" vertex="1">
          <mxGeometry x="810" y="70.00000000000001" width="70" height="40" as="geometry" />
        </mxCell>
        <mxCell id="UUl44Q_bIR5ZF49A4Y3q-177" value="&lt;font&gt;NÃO&lt;/font&gt;" style="edgeLabel;html=1;align=center;verticalAlign=middle;resizable=0;points=[];fontSize=8;" parent="UUl44Q_bIR5ZF49A4Y3q-96" vertex="1" connectable="0">
          <mxGeometry x="362" y="90.00000000000001" as="geometry" />
        </mxCell>
        <mxCell id="Qf3NjimF2T0bbUfOxqCO-158" value="Salva preferências e ações no sistema" style="rounded=1;whiteSpace=wrap;html=1;fontSize=8;fillColor=#f5f5f5;strokeColor=#666666;fontColor=#333333;" vertex="1" parent="UUl44Q_bIR5ZF49A4Y3q-96">
          <mxGeometry x="1460" y="60.99" width="70" height="40" as="geometry" />
        </mxCell>
        <mxCell id="Qf3NjimF2T0bbUfOxqCO-203" style="edgeStyle=orthogonalEdgeStyle;rounded=0;orthogonalLoop=1;jettySize=auto;html=1;entryX=0.5;entryY=1;entryDx=0;entryDy=0;endSize=4;" edge="1" parent="UUl44Q_bIR5ZF49A4Y3q-96" source="Qf3NjimF2T0bbUfOxqCO-199" target="UUl44Q_bIR5ZF49A4Y3q-173">
          <mxGeometry relative="1" as="geometry" />
        </mxCell>
        <mxCell id="Qf3NjimF2T0bbUfOxqCO-199" value="Aguarda alteração" style="verticalLabelPosition=bottom;verticalAlign=top;html=1;shape=mxgraph.flowchart.on-page_reference;fillColor=#fff2cc;strokeColor=#d6b656;fontSize=8;" vertex="1" parent="UUl44Q_bIR5ZF49A4Y3q-96">
          <mxGeometry x="835" y="140" width="20" height="20" as="geometry" />
        </mxCell>
        <mxCell id="Qf3NjimF2T0bbUfOxqCO-230" style="edgeStyle=orthogonalEdgeStyle;rounded=0;orthogonalLoop=1;jettySize=auto;html=1;entryX=0.5;entryY=0;entryDx=0;entryDy=0;endSize=4;" edge="1" parent="UUl44Q_bIR5ZF49A4Y3q-96" source="Qf3NjimF2T0bbUfOxqCO-228" target="UUl44Q_bIR5ZF49A4Y3q-173">
          <mxGeometry relative="1" as="geometry" />
        </mxCell>
        <mxCell id="Qf3NjimF2T0bbUfOxqCO-228" value="Aguarda cadastro&lt;div&gt;de dieta&lt;/div&gt;" style="verticalLabelPosition=bottom;verticalAlign=top;html=1;shape=mxgraph.flowchart.on-page_reference;fillColor=#fff2cc;strokeColor=#d6b656;fontSize=8;" vertex="1" parent="UUl44Q_bIR5ZF49A4Y3q-96">
          <mxGeometry x="415" y="19.00999999999999" width="20" height="20" as="geometry" />
        </mxCell>
        <mxCell id="Qf3NjimF2T0bbUfOxqCO-284" value="" style="edgeStyle=orthogonalEdgeStyle;rounded=0;orthogonalLoop=1;jettySize=auto;html=1;endSize=4;" edge="1" parent="UUl44Q_bIR5ZF49A4Y3q-96" source="Qf3NjimF2T0bbUfOxqCO-265" target="Qf3NjimF2T0bbUfOxqCO-278">
          <mxGeometry relative="1" as="geometry" />
        </mxCell>
        <mxCell id="Qf3NjimF2T0bbUfOxqCO-265" value="Login no App" style="rounded=1;whiteSpace=wrap;html=1;fontSize=8;fillColor=#f5f5f5;fontColor=#333333;strokeColor=#666666;" vertex="1" parent="UUl44Q_bIR5ZF49A4Y3q-96">
          <mxGeometry x="1030" y="60.99000000000001" width="70" height="40" as="geometry" />
        </mxCell>
        <mxCell id="Qf3NjimF2T0bbUfOxqCO-288" value="" style="edgeStyle=orthogonalEdgeStyle;rounded=0;orthogonalLoop=1;jettySize=auto;html=1;endSize=4;" edge="1" parent="UUl44Q_bIR5ZF49A4Y3q-96" source="Qf3NjimF2T0bbUfOxqCO-278" target="UUl44Q_bIR5ZF49A4Y3q-180">
          <mxGeometry relative="1" as="geometry" />
        </mxCell>
        <mxCell id="Qf3NjimF2T0bbUfOxqCO-278" value="Página de resumo de dieta e acompanhamento" style="rounded=1;whiteSpace=wrap;html=1;fontSize=8;fillColor=#f5f5f5;strokeColor=#666666;fontColor=#333333;" vertex="1" parent="UUl44Q_bIR5ZF49A4Y3q-96">
          <mxGeometry x="1160" y="60.99000000000001" width="70" height="40" as="geometry" />
        </mxCell>
        <mxCell id="Qf3NjimF2T0bbUfOxqCO-289" style="edgeStyle=orthogonalEdgeStyle;rounded=0;orthogonalLoop=1;jettySize=auto;html=1;entryX=0.5;entryY=0;entryDx=0;entryDy=0;entryPerimeter=0;endSize=4;dashed=1;" edge="1" parent="UUl44Q_bIR5ZF49A4Y3q-1" source="UUl44Q_bIR5ZF49A4Y3q-210" target="UUl44Q_bIR5ZF49A4Y3q-98">
          <mxGeometry relative="1" as="geometry">
            <Array as="points">
              <mxPoint x="515" y="400" />
              <mxPoint x="60" y="400" />
              <mxPoint x="60" y="820" />
              <mxPoint x="70" y="820" />
            </Array>
          </mxGeometry>
        </mxCell>
      </root>
    </mxGraphModel>
  </diagram>
</mxfile>
